<svg width="565" height="554" viewBox="0 0 565 554" fill="none" xmlns="http://www.w3.org/2000/svg">
<g opacity="0.3">
<path d="M720.307 489.791C714.007 280.894 395.428 -77.3095 370.23 -105C345.257 -77.3095 26.4528 280.894 20.1532 489.791C14.3036 685.175 176.743 843.565 370.23 844.451C563.717 843.565 726.157 684.954 720.307 489.791Z" stroke="#8F71CB" stroke-width="40" stroke-miterlimit="10"/>
<path d="M639.087 573.75C634.362 414.253 390.928 140.671 371.805 119.405C352.681 140.671 109.247 414.253 104.522 573.75C100.023 722.835 223.989 844.009 371.805 844.673C519.62 844.009 643.587 722.835 639.087 573.75Z" stroke="#8F71CB" stroke-width="40" stroke-miterlimit="10"/>
<path d="M542.35 673.211C539.425 571.532 384.185 397.193 372.036 383.68C359.887 397.193 204.647 571.532 201.722 673.211C198.797 768.245 277.992 845.557 372.036 846C466.305 845.557 545.275 768.467 542.35 673.211Z" stroke="#8F71CB" stroke-width="40" stroke-miterlimit="10"/>
<path d="M542.35 180.322C539.425 282.002 384.185 456.341 372.036 469.854C359.887 456.341 204.647 282.002 201.722 180.322C198.797 85.2888 277.992 7.97698 372.036 7.53394C466.305 7.97698 545.275 85.0673 542.35 180.322Z" stroke="#8F71CB" stroke-width="40" stroke-miterlimit="10"/>
</g>
</svg>
