<svg width="97" height="128" viewBox="0 0 97 128" fill="none" xmlns="http://www.w3.org/2000/svg">
<path d="M96.9788 47.8149C96.1068 75.9758 51.9916 124.266 48.5016 128C45.0402 124.266 0.893185 75.9758 0.0212517 47.8149C-0.789417 21.4722 21.7036 0.116234 48.5016 0C75.2964 0.116234 97.7894 21.5013 96.9788 47.8149Z" fill="#EDEAF3"/>
<path fill-rule="evenodd" clip-rule="evenodd" d="M76.6169 90.0186C75.813 100.245 67.1237 105.152 63.0061 96.9959C61.8474 94.7007 61.3891 91.7181 61.6411 88.8146C62.5179 78.7104 71.1869 73.9254 75.2434 82.0697C76.3559 84.3032 76.8385 87.1995 76.617 90.0187L76.6169 90.0186ZM22.6239 22H24.8954C28.0444 22.3788 30.9583 24.2452 33.2885 26.2151C34.6084 27.3308 36.1386 28.9305 36.1389 28.93C36.1512 28.906 36.1902 28.9807 36.2177 29.0039C36.5344 29.8856 38.3167 31.1425 39.7786 31.0052C42.3963 30.7594 43.9377 31.9467 45.1151 33.9267C45.7295 34.9599 47.2031 35.1862 48.355 36.3427C48.9402 36.9303 48.9914 37.4938 49.5001 38.0128C49.937 37.6333 50.0834 36.9059 50.6447 36.3427C51.7763 35.2072 53.2752 34.9508 53.8847 33.9259C54.3243 33.1864 54.6285 32.8105 55.2192 32.2923C56.6534 31.0342 57.0737 30.8849 59.347 31.0169C60.9103 31.1077 62.4956 29.7127 62.9538 28.8693C63.3367 28.3781 63.9521 27.804 64.4226 27.3513C67.222 24.6582 71.0061 22.176 74.9261 22.0001H75.8191C77.3477 22.0722 78.8872 22.5162 80.3878 23.4552C82.7847 24.955 83.7984 26.5043 84 28.1223V29.4258C83.7421 31.6769 82.2618 34.0642 80.9897 36.6359L79.0137 40.4527C74.8592 48.7571 73.3852 56.9333 74.4558 66.5585C74.5418 67.3319 74.6391 68.2117 74.7603 69.0826C75.0014 70.8133 75.1473 72.5221 75.3502 74.1501C75.6155 76.279 75.6636 79.7158 76.5884 81.5326C79.6425 87.5328 78.004 98.8501 71.4688 101.873C69.1722 102.936 66.6518 102.576 64.8339 101.362C58.456 97.1022 58.5029 82.5344 65.885 77.7054C67.1469 76.8799 68.2677 76.4476 70.3912 76.547C72.1413 76.629 73.1949 77.563 74.2969 78.3006C74.2969 76.7966 73.5122 71.1449 73.314 69.5852C73.0436 67.4572 72.6599 65.1342 72.6792 62.9463C72.6879 61.9569 72.5439 61.4782 72.5349 60.6568C72.5198 59.2808 72.7569 57.4558 72.8154 56.0775C72.8719 54.7439 73.1791 53.1097 73.4315 51.8445C74.795 45.0089 77.6472 39.8029 80.764 33.8511C82.6354 30.2773 83.7686 27.4902 79.8768 24.9087C78.8523 24.2292 77.8197 23.7002 76.4214 23.5133C75.0548 23.3306 73.1082 23.6209 72.2755 24.0203C72.2755 27.2299 71.5305 29.3402 70.2273 31.2669C69.7415 31.9853 69.6506 31.8277 69.565 32.8947C69.4224 34.6728 68.785 36.7622 68.0963 38.2959C67.1524 40.3979 65.978 42.2395 64.4255 43.7861C62.8448 45.3608 61.2028 46.6124 59.338 47.8604C60.624 50.2893 57.6314 53.0007 56.3395 54.2919C55.2076 55.4231 52.3308 58.459 50.4435 58.501V60.7907C51.5418 60.8152 53.1857 61.8431 53.4083 62.6764C55.1974 61.4789 56.8899 60.305 58.7184 59.094C59.5852 58.5198 60.8852 57.3327 61.4852 58.7851C61.7826 59.5048 60.6611 60.9448 60.255 61.5725C56.6695 67.1162 56.5079 68.1484 56.5079 75.472C56.5079 81.3534 56.5079 87.2349 56.5079 93.1163C56.5079 96.249 56.2583 98.4496 55.2525 100.617C54.2755 102.721 52.5692 103.952 50.1409 104.026H49.6818C44.6714 103.875 42.8901 98.6013 42.8965 93.3858C42.9036 87.5494 42.8966 81.7125 42.8966 75.8761C42.8966 71.3244 43.1392 68.08 40.9674 64.4699C40.4006 63.5277 39.919 62.6714 39.3859 61.7403C39.1167 61.27 38.8411 60.8226 38.5248 60.3112C37.4226 58.5297 38.5556 57.7521 39.5515 58.1991C40.2998 58.535 42.6422 60.3475 43.4639 60.8971C44.3406 61.4836 45.1399 62.1033 45.9962 62.6764C46.2223 62.3388 46.8941 61.8102 47.2852 61.5404C47.7874 61.1939 48.3242 60.939 48.961 60.7907V58.501C47.4813 57.7914 47.2988 57.9542 45.8284 56.6483C45.3312 56.2066 45.0397 55.8042 44.5137 55.4031C43.403 54.556 41.7507 52.7176 40.9527 51.5543C40.3139 50.6232 39.7055 49.1738 40.336 47.8605C38.1516 46.7053 36.1757 44.9564 34.5711 43.1164C32.4564 40.6913 30.9682 37.7711 30.3287 34.5609C30.2069 33.9499 30.2085 33.1267 30.0027 32.5969C29.8962 32.3229 29.709 32.1828 29.5002 31.887C29.3177 31.6286 29.2458 31.504 29.0687 31.2407C28.1906 29.9342 26.3922 25.6896 27.129 24.155C24.765 23.0214 21.5357 23.2922 19.2852 24.8011C14.7308 27.8546 16.6379 30.6164 18.5494 34.4808L23.3364 44.243C24.6777 47.5846 26.0229 52.2608 26.1846 56.0775L26.3212 62.9467C26.3426 66.3026 24.7032 75.8007 24.7032 78.3005C25.8353 77.5428 26.8979 76.5891 28.7408 76.5442C29.8549 76.517 30.5344 76.5293 31.3264 76.7992C34.7155 77.9542 36.7759 81.0243 37.9274 84.4791C41.9522 96.5543 33.0185 107.136 25.6135 100.557C21.1415 96.5843 19.8664 88.8001 21.7201 83.266C22.3904 81.265 22.8969 81.1478 23.0822 78.9703C23.8525 69.9163 25.9139 62.1534 24.2421 52.9008C23.382 48.1405 21.8869 44.2517 19.8516 40.1832C19.2092 38.8991 18.5736 37.7598 17.9215 36.4551C16.8408 34.2927 15.2629 32.1297 15 29.6241V28.2023C15.0087 28.1208 15.0186 28.0391 15.0305 27.9569C15.4269 25.2188 18.4216 23.2351 20.8097 22.4189C21.4182 22.2109 22.0235 22.0747 22.6237 22H22.6239ZM22.3615 89.6145C22.1941 86.7663 22.7502 83.8947 23.9461 81.7211C28.2687 73.865 36.7879 79.1171 37.4038 89.3428C37.7029 94.31 35.4393 101.544 29.9678 101.052C25.2162 100.625 22.6283 94.1545 22.3615 89.6145ZM40.4608 60.6439L44.7221 63.5474C45.4573 64.0449 46.1435 64.9048 46.8569 63.9455C47.349 63.2839 47.9343 62.6422 49.0056 62.3286V95.5409C49.0056 96.9319 48.5366 99.4709 50.3061 98.5221C50.605 97.471 50.4192 64.221 50.4192 62.2141C51.4086 62.4268 52.0504 63.0799 52.4761 63.7446C53.085 64.6953 53.3228 64.5473 54.635 63.6306C55.3271 63.1472 55.9824 62.6903 56.6997 62.1974C57.2505 61.8188 58.3456 61.0119 58.9783 60.7373C58.3031 62.5211 55.7253 64.8416 55.1382 69.6794C54.8 72.4654 55.1363 91.0573 55.0107 95.1406C54.8969 98.8408 53.5884 102.801 49.6301 102.6C46.1231 102.421 44.6366 98.7116 44.4227 95.1065C44.112 89.8713 44.7462 73.4246 44.279 69.6449C43.8583 66.2405 42.6091 64.4111 41.0356 61.7077C40.8723 61.4273 40.6039 60.8534 40.4609 60.6439H40.4608ZM41.5675 48.6973C42.5248 49.1569 45.3013 51.0621 46.3008 51.7292C48.2982 53.0623 48.8968 53.7159 49.0035 56.9378C47.6621 56.5971 45.3169 54.2042 44.5715 53.4598C43.8715 52.7607 41.256 50.466 41.5675 48.6973ZM50.7793 56.9532C50.6237 56.072 51.0007 54.4431 51.3199 53.7165C52.0299 52.1001 58.0683 48.7606 58.1772 48.7512C58.4225 50.6284 55.4183 53.1487 54.1305 54.3761C52.7603 55.6821 52.6014 56.0186 50.7792 56.9532H50.7793ZM50.4632 46.7269C50.3926 46.0138 50.9018 44.9289 51.0857 44.1924C51.3793 43.0163 51.5153 42.8238 52.4615 42.3351C53.7237 41.6832 52.6592 41.4012 53.2278 40.1418C53.4784 39.5868 54.2267 38.7574 54.7279 38.5275C56.1862 37.8592 56.0154 39.6934 57.0589 39.0004C57.4488 38.7415 57.4062 37.5058 58.1448 36.8344C58.7336 36.2991 59.6942 36.3473 60.5177 35.9812C61.4576 35.5636 61.5225 34.9418 62.7216 35.0914C62.7456 36.5473 61.9643 38.5197 60.9314 39.3508C59.4342 40.5554 59.0068 41.1926 57.8657 42.215C57.1639 42.8437 56.078 42.8408 55.7697 43.2159C55.5773 43.4499 55.5272 43.7276 55.1814 44.1087C53.5884 45.8641 53.5189 43.9395 50.4633 46.7268L50.4632 46.7269ZM47.3807 43.9241C47.6212 44.9444 48.0566 45.9012 48.2386 46.8817C47.6318 46.454 47.3034 46.0333 46.5431 45.5601C45.4563 44.8836 45.1742 45.193 44.2102 44.803C43.164 44.3798 43.3611 43.8971 42.7113 43.1998C42.3419 42.8033 41.2146 42.7342 40.6647 42.278C40.3326 42.0026 40.2429 41.72 39.9465 41.3786L38.3735 39.9928C37.397 39.1771 36.8317 38.878 36.3479 37.4372C36.1461 36.8362 35.7967 35.7328 35.7998 35.1164C37.2229 34.8175 36.3924 35.6826 39.3393 36.3323C41.3803 36.7823 40.8608 38.6348 41.5141 39.0219C42.7699 39.4912 42.6871 37.3188 44.3685 38.9821C44.7748 39.384 44.988 39.497 45.2752 40.0976C45.6126 40.8032 45.382 41.2121 45.4706 41.9613C46.3491 42.7948 46.9867 42.2529 47.3807 43.9242L47.3807 43.9241ZM34.8108 29.7855C35.464 30.1773 35.4393 30.7353 36.7301 31.5294C39.944 33.5069 40.379 31.415 42.4218 32.9808C44.5381 34.603 43.0361 34.7036 46.0997 36.4439C47.5878 37.2893 48.7646 38.9542 48.8655 40.6793C48.9303 41.7891 49.002 43.023 48.9351 44.1283C48.3762 43.0242 48.7912 42.6412 47.7726 41.773C46.1348 40.3771 47.3069 41.0127 46.5631 39.4763C46.1723 38.6693 45.5489 37.9993 44.951 37.5921C43.8738 36.8585 43.5857 36.9274 42.2224 37.1244C41.6108 35.005 39.2868 35.0353 38.4734 34.6399C37.7732 34.2996 37.5148 33.7008 36.404 33.6294C35.3967 33.5647 34.7733 33.9908 34.299 34.5261C34.1766 35.3928 34.7151 37.0242 34.9853 37.8536C35.4773 39.3637 35.7471 39.4344 36.565 40.3138C37.1362 40.9281 38.5196 41.8771 39.2373 42.7608C39.4438 43.015 39.4052 43.0333 39.6684 43.275C40.8515 44.3612 41.3033 43.6583 42.0805 44.7689C44.0023 47.5153 44.2528 44.624 48.1 48.8584C49.1491 50.0132 49.0843 49.7531 48.9989 51.9011C48.5143 51.6028 48.1508 51.1909 47.635 50.8004C44.8807 48.7158 40.9629 46.9567 37.8934 44.3774C34.6499 41.6521 31.5129 36.7397 31.4937 32.371C33.0072 31.1307 33.8101 31.7663 33.718 30.216C33.0926 29.7652 32.8292 29.8794 32.1565 30.2564C31.6229 30.5555 31.2655 30.8769 30.6332 31.0241C30.5287 30.6331 30.1522 30.1671 29.9113 29.7252C29.0072 28.0656 28.6116 26.9871 28.6116 24.8284C30.7152 25.9408 33.4481 28.0107 34.8109 29.7855L34.8108 29.7855ZM65.9426 30.2161C65.7223 31.8183 66.8006 31.1722 68.1151 32.3712C68.1116 34.7575 66.8311 37.779 65.8336 39.5361C63.4952 43.6557 59.8483 45.9395 55.8868 48.316C54.1226 49.3742 53.2015 49.8437 51.649 51.0823L50.4276 52.2283L50.4398 48.7556C51.1357 48.1298 52.2873 46.8269 53.2489 46.4898C54.4837 46.0568 54.9296 46.6481 56.5398 44.6621C57.4156 43.5819 57.7019 44.6576 59.5176 42.5204C60.1999 41.7173 61.3073 40.9032 62.1468 40.1619C63.5125 38.956 64.3693 35.3203 64.2666 34.6964C64.1492 33.9839 62.3667 33.0372 60.8201 34.1212C60.0974 34.6278 60.1575 34.6802 59.0609 34.9135C57.6462 35.2145 56.6484 35.998 56.3063 37.1403C54.6422 36.7874 53.8456 37.2654 52.9767 38.1355C51.0661 40.0491 52.4805 41.0056 50.3437 42.0911C50.3238 40.9619 50.0977 39.892 50.6269 39.0212C52.4314 36.0522 51.4857 37.5446 54.0771 35.7347C54.9047 35.1566 54.8621 34.8269 55.5515 33.9769C57.6575 31.3811 58.844 32.7792 60.6063 32.2924C61.3456 32.0882 62.3593 31.5234 62.8329 31.1485C63.4963 30.6232 63.8867 29.7502 64.4591 29.5421C65.2276 28.3979 69.308 25.0396 70.793 24.6938C70.793 26.01 70.5295 27.0901 70.1725 28.1144C69.7629 29.2893 68.8786 30.4886 68.7715 30.8896C67.5732 30.7899 67.1428 29.4087 65.9425 30.2162L65.9426 30.2161Z" fill="#6D45BD" stroke="#7852C2"/>
<path fill-rule="evenodd" clip-rule="evenodd" d="M37.3718 28.5249C38.4014 29.1276 37.859 29.1371 39.9 28.2991C43.0612 27.0011 45.6409 26.2883 49.2464 26.0923C52.2044 25.9315 56.0717 26.8372 58.7907 27.936C59.7588 28.3272 60.7684 29.0368 61.4947 28.3648C61.7042 27.2537 61.2283 27.3616 59.223 26.5606C58.1343 26.1257 57.2028 25.7798 55.8905 25.4465L50.3051 24.5538C49.1915 24.5406 49.3677 24.9715 48.8268 25.3677V24.6942C45.3579 24.6942 42.4773 25.8051 39.6456 26.8321C38.0699 27.4037 37.4399 27.554 37.3717 28.5249H37.3718Z" fill="#6D45BD" stroke="#7852C2"/>
</svg>
