<svg width="97" height="128" viewBox="0 0 97 128" fill="none" xmlns="http://www.w3.org/2000/svg">
<path d="M96.9788 47.8149C96.1068 75.9758 51.9916 124.266 48.5016 128C45.0402 124.266 0.893185 75.9758 0.0212517 47.8149C-0.789417 21.4722 21.7036 0.116234 48.5016 0C75.2964 0.116234 97.7894 21.5013 96.9788 47.8149Z" fill="#EDEAF3"/>
<path d="M64.9517 72.6302C63.6694 74.1702 64.3565 75.2608 65.7223 77.4277C66.1051 78.0345 66.5318 78.7126 66.9754 79.4761C68.4235 81.9713 69.6851 85.7398 69.5575 89.4966C69.4584 92.4004 68.5407 95.2991 66.2676 97.6266C64.6369 99.2962 62.7693 100.097 60.9806 100.865C57.4401 102.385 54.2506 103.754 55.075 112.865C55.1164 113.325 54.7771 113.733 54.316 113.775C53.8556 113.816 53.4482 113.477 53.4061 113.016C52.471 102.692 56.1921 101.095 60.3232 99.3214C61.9604 98.6188 63.6707 97.885 65.065 96.4571C67.0105 94.4657 67.7966 91.962 67.8821 89.4435C67.998 86.0299 66.846 82.595 65.5235 80.3167C65.0832 79.5583 64.6719 78.9049 64.3035 78.3208C62.4474 75.3761 61.5369 73.9287 63.7388 71.4619C63.9479 71.1472 64.295 70.9128 64.5605 70.6757C64.8558 70.4121 65.0585 70.1531 65.3681 69.9096C70.0497 66.2286 72.2639 65.5616 76.2629 59.4164C79.8487 53.9059 81.4612 45.836 79.1091 38.3458C74.9495 25.0989 60.9475 17.031 47.4811 17.7304C22.7502 19.0146 9.73719 43.8161 22.927 61.2277C24.7041 63.5734 27.0626 65.9961 29.5384 67.6779C32.4281 69.6408 32.397 69.6914 34.5224 71.7702C34.514 71.778 34.5056 71.7857 34.4978 71.7935C34.4901 71.8013 34.4823 71.8084 34.4745 71.8149C36.6544 74.5879 35.0431 77.4963 33.1981 80.8264C30.8654 85.0358 28.1001 90.0244 34.0199 96.0853C35.3339 97.4311 36.7904 98.4135 38.1918 99.359C42.0347 101.951 45.5001 104.29 45.7306 112.855C45.7416 113.318 45.3751 113.702 44.9127 113.713C44.4503 113.724 44.0663 113.357 44.0553 112.895C43.8487 105.202 40.7207 103.091 37.2521 100.751C35.7859 99.7625 34.2634 98.7347 32.8173 97.2543C26.0284 90.3035 29.1221 84.7211 31.7326 80.011C33.4313 76.9459 34.8916 74.3114 32.4935 72.1549C32.4767 72.14 32.4605 72.1244 32.4456 72.1082C32.1768 71.8874 31.9379 71.7106 31.6607 71.4406C30.7476 70.5514 27.0555 68.0102 24.9178 66.1269C23.4056 64.7954 20.6675 61.2329 19.6909 59.4403C18.3465 56.9723 17.4003 55.0716 16.7126 52.0848C15.179 45.4287 16.1278 38.3315 19.4908 32.4985C21.1209 29.671 23.1174 26.9673 25.6275 24.8561C29.1324 21.9088 31.2203 20.2949 36.2302 18.3787C40.0103 16.9326 43.8629 16.1483 47.6871 16H50.3824C56.8423 16.2539 63.1513 18.323 68.816 22.0849C77.5347 27.8752 83.5465 38.7978 81.649 49.8752C80.5371 56.3648 78.545 59.4559 75.1062 63.857C74.375 64.7928 72.5974 66.5705 71.6616 67.3017L66.7572 71.0092C65.94 71.741 65.4167 72.3271 64.9517 72.6302ZM54.6424 64.708C54.7117 64.6517 54.7868 64.6076 54.8658 64.5765C55.0893 64.2871 55.4422 64.0779 55.7563 63.7431C56.7652 62.6654 57.8811 61.5023 59.1329 60.5167C62.1987 58.1024 65.0773 55.6512 66.1148 51.3375C61.2836 50.0526 52.2851 50.2825 46.9086 50.6134C45.6523 50.6905 41.5309 51.1633 40.6249 50.9774C39.5459 49.903 40.5168 49.4134 41.8877 49.3046C45.5474 49.0151 48.7861 48.7826 52.5105 48.7056C59.6316 48.5586 60.059 48.8675 66.5752 49.6601C66.8174 47.2744 67.0765 45.7078 66.5998 43.2572C66.3693 42.0715 65.495 38.6022 64.5107 38.3328C64.4776 38.3237 64.4336 38.3108 64.396 38.3011C64.3507 38.2894 64.2037 38.2583 64.1545 38.2467C60.66 37.4132 60.5778 37.3018 56.389 36.9903C55.2382 36.9048 47.2072 36.6963 46.9928 36.5875C46.2766 36.2248 46.5537 35.2677 47.2162 35.0779C47.6449 34.9549 49.1086 35.0268 49.6396 35.0352C55.2855 35.1213 57.5029 35.3648 63.1047 36.1976C62.167 34.848 59.4781 33.0451 57.3261 32.1391C54.3685 30.8944 52.366 30.7823 48.922 30.7441C42.6746 30.6748 37.8259 33.2912 35.1992 36.4683C38.0519 36.2436 44.1576 34.2276 43.2367 37.1574C42.3695 37.4449 40.1664 37.4003 38.9113 37.5641C37.5856 37.7377 36.3002 37.9896 35.0153 38.2693C33.5919 38.5796 33.5789 38.3665 32.7247 40.5671C32.3251 41.5968 31.8971 43.05 31.8323 44.2533C40.7816 42.8318 47.5711 41.7664 56.7387 42.9159C57.7315 43.0403 59.5027 42.9658 59.4159 44.125C59.324 45.3535 57.3597 44.6891 56.5256 44.5822C52.9443 44.125 49.0749 44.0376 45.4748 44.2138C40.4908 44.4579 36.3889 45.1463 31.695 46.0083C31.5991 48.2924 32.1632 50.8926 32.9384 52.7978C34.163 55.8066 34.8981 55.9828 35.9433 57.673C36.9633 57.6536 38.9599 57.1498 40.0731 56.9691C42.3235 56.6032 51.9878 55.5132 52.9599 56.177C53.546 56.5779 53.4165 57.5293 52.5908 57.6821C52.1032 57.7721 50.9277 57.7099 50.3572 57.7242C46.0927 57.8291 41.8825 58.2572 37.7411 59.0939L41.0381 61.9239C42.1338 62.9983 42.9725 63.8687 44.0417 64.9496C45.6406 64.8524 51.7029 63.5825 52.0163 65.1458C52.3104 66.6146 49.58 66.0589 48.3418 66.1315C47.3263 66.191 46.3983 66.3102 45.3861 66.4578C45.445 66.8341 45.9923 67.4059 46.2494 67.9033C48.1385 71.5623 45.8977 72.5577 45.3272 70.4057C44.9211 68.8721 44.4484 68.0866 43.6887 67.1624C41.4642 64.4561 38.978 62.2568 36.1597 60.0497C30.372 55.5171 28.1985 45.801 31.7196 38.7065C33.7388 34.6369 37.3441 31.4701 42.4531 29.9145C47.7072 28.3149 54.5653 28.8447 59.1019 31.0874C63.1494 33.0885 66.6232 36.6432 67.9793 41.7302C69.45 47.2472 67.8827 53.5445 65.1084 57.1621C62.7478 60.2395 59.6076 61.9291 56.3625 65.4981C56.0905 65.7973 55.9014 65.9734 55.6741 66.0343C55.4215 66.2461 53.6762 67.7654 52.7708 69.9634C51.7223 72.5104 50.5715 75.8113 50.5683 75.8203C50.4161 76.2575 49.9382 76.488 49.501 76.3358C49.0639 76.1836 48.8333 75.7057 48.9855 75.2686C48.9888 75.2589 50.1519 71.9224 51.2211 69.3261C52.3634 66.5517 54.6346 64.7132 54.6411 64.708H54.6424ZM52.2314 86.5033C52.1867 87.9196 52.0144 89.1779 51.802 90.7503C51.655 92.2599 51.5255 93.6743 51.4147 95.02C51.3759 95.4915 51.3396 95.9526 51.3053 96.4046C51.3305 97.4544 51.4678 98.3261 51.778 98.815C52.0552 99.2521 52.765 99.2023 54.2033 98.2904C54.7933 97.9161 55.4467 97.5755 56.1202 97.2238C57.1784 96.6714 58.2923 96.0899 59.3609 95.2253C61.3827 93.5888 62.13 91.3209 62.1333 88.9279C62.1378 85.5474 60.6878 81.9105 59.1873 79.3414C59.0118 79.0402 59.1854 79.3362 59.019 79.0474C57.589 76.5787 55.3632 74.7965 53.5784 78.1232C53.4754 78.3156 53.3893 78.5163 53.3168 78.7229C53.1652 79.3284 53.0286 79.9722 52.9107 80.6567C52.8679 80.9611 52.8278 81.2531 52.776 81.5212C52.7281 81.8619 52.684 82.2116 52.6458 82.5717C52.4988 83.9537 52.3609 85.2605 52.2314 86.5033ZM50.5592 86.3576C50.6156 84.7004 50.7904 82.9104 51.1142 81.2913C51.1835 80.8043 51.2619 80.3335 51.3487 79.8802C51.4322 79.3653 51.5345 78.8278 51.6971 78.3072C53.2112 72.3394 56.1611 69.6881 57.1124 68.9634C59.3816 66.1237 64.4977 62.6875 66.4056 60.6106C68.2532 58.5991 69.9519 56.2198 70.9997 53.0005C73.3972 45.6327 71.3915 37.5091 67.1523 33.0742L64.7892 30.8484C61.215 27.9141 56.255 25.9991 51.2204 25.8786C44.1492 25.709 37.756 26.8449 32.7156 31.7971C27.9123 36.5176 25.5667 42.7657 26.7505 49.7942C27.3263 53.2123 28.7232 56.2023 30.3279 58.4243C33.6618 63.0404 39.6023 65.8478 42.2724 70.1304C42.3384 70.2049 42.3922 70.2923 42.4291 70.3901C42.6707 70.8033 42.8818 71.2307 43.0567 71.675C43.2846 72.0797 43.5858 72.5752 43.9769 73.1502C43.9879 73.1658 43.9977 73.182 44.0074 73.1982C44.7146 74.2382 45.4107 75.2919 46.0156 76.7982C46.625 78.3162 47.1314 80.2714 47.4429 83.0956C47.5077 83.6823 47.5692 84.2619 47.6282 84.8344C48.1566 88.6229 48.3411 92.5183 48.4117 94.3135C48.7057 98.9607 48.8281 102.908 48.9272 106.109C48.9369 106.426 48.9467 106.734 48.9629 107.238L49.139 112.794C49.1533 113.256 48.7906 113.643 48.3276 113.658C47.8652 113.672 47.4786 113.309 47.4637 112.846L47.2519 106.155C47.2072 104.711 47.1573 103.115 47.0893 101.369C45.7546 101.463 43.4977 99.8661 39.2526 96.6306C37.666 95.4215 36.0353 94 34.9596 92.2852C33.8295 90.4829 33.3211 88.3963 34.0989 85.9619C34.9972 83.1493 36.407 80.2331 37.9781 78.1245C39.3614 76.2678 41.4629 74.9538 43.0657 74.8004C42.9194 74.5763 42.7717 74.3574 42.6234 74.1391C42.6124 74.1249 42.602 74.1106 42.5917 74.0957C41.9084 73.0913 41.4642 72.2779 41.1967 71.7326C41.1695 71.7294 41.1449 71.7255 41.1261 71.721C39.669 68.8113 36.7658 66.8199 34.3023 64.7792C33.1936 63.8609 32.217 63.1278 31.2864 62.1992C27.9402 58.8588 24.8342 53.4843 24.7312 46.5711C24.546 34.1033 34.7122 24.6819 46.7662 24.1761C54.1236 23.8672 59.7689 25.0614 64.5528 28.504C68.5265 31.3632 72.0521 35.4756 73.3415 41.8131C74.7099 48.5385 72.8014 55.126 69.641 59.3937C67.8251 61.8456 66.4619 62.997 64.104 64.9088L59.6407 68.7711C59.2392 69.1636 58.949 69.5172 58.5702 69.907C58.5061 70.0074 58.4193 70.0961 58.3118 70.1641C58.293 70.1822 58.2742 70.2004 58.2547 70.2185H58.2301C57.8526 70.4789 56.2012 71.7352 54.7602 74.689C56.7782 73.9973 58.9581 75.5943 60.4703 78.2048C60.5234 78.2961 60.3524 78.0008 60.6386 78.4917C62.2531 81.2564 63.8132 85.1997 63.808 88.926C63.8041 91.791 62.891 94.5226 60.4184 96.5238C59.223 97.4913 58.0294 98.1143 56.8954 98.7062C56.2828 99.0261 55.6889 99.3363 55.1035 99.7074C53.2196 100.902 51.9309 101.031 51.0611 100.455C51.0061 101.738 50.9776 102.967 50.9776 104.176C50.9776 109.273 50.9543 112.758 50.9543 112.768C50.9523 113.23 50.5761 113.604 50.1137 113.602C49.6513 113.6 49.2776 113.224 49.2795 112.761C49.2795 112.754 49.2964 110.368 49.2964 104.176C49.2964 101.736 49.411 99.2146 49.626 96.3379C49.5936 94.8536 49.7646 93.1795 49.9841 91.6388C50.0405 91.2457 50.0949 90.8617 50.1292 90.6143C50.2587 89.2848 50.4031 87.8698 50.5611 86.3556L50.5592 86.3576ZM46.8199 96.2103C46.7934 95.6773 46.7642 95.0964 46.7377 94.4275C46.5557 91.5605 46.3083 88.4222 45.9593 85.0222C45.8958 84.5689 45.8271 84.1175 45.7527 83.6713C45.3628 81.3283 45.0882 79.1387 44.6038 77.8014C44.5909 77.7658 44.5773 77.7301 44.5643 77.6952C44.2684 76.9252 43.8953 76.4641 43.3753 76.4621C42.3385 76.4582 40.4967 77.5514 39.3245 79.1244C37.8583 81.0919 36.5398 83.8254 35.6946 86.469C35.0924 88.3542 35.4926 89.981 36.3779 91.3928C37.3182 92.892 38.8096 94.1852 40.27 95.2978C44.8454 98.7846 46.5531 100.049 46.7552 99.7838C46.9831 99.4846 46.9197 98.2069 46.8199 96.2103Z" fill="#6D45BD"/>
<path d="M64.9517 72.6302C63.6694 74.1702 64.3565 75.2608 65.7223 77.4277C66.1051 78.0345 66.5318 78.7126 66.9754 79.4761C68.4235 81.9713 69.6851 85.7398 69.5575 89.4966C69.4584 92.4004 68.5407 95.2991 66.2676 97.6266C64.6369 99.2962 62.7693 100.097 60.9806 100.865C57.4401 102.385 54.2506 103.754 55.075 112.865C55.1164 113.325 54.7771 113.733 54.316 113.775C53.8556 113.816 53.4482 113.477 53.4061 113.016C52.471 102.692 56.1921 101.095 60.3232 99.3214C61.9604 98.6188 63.6707 97.885 65.065 96.4571C67.0105 94.4657 67.7966 91.962 67.8821 89.4435C67.998 86.0299 66.846 82.595 65.5235 80.3167C65.0832 79.5583 64.6719 78.9049 64.3035 78.3208C62.4474 75.3761 61.5369 73.9287 63.7388 71.4619C63.9479 71.1472 64.295 70.9128 64.5605 70.6757C64.8558 70.4121 65.0585 70.1531 65.3681 69.9096C70.0497 66.2286 72.2639 65.5616 76.2629 59.4164C79.8487 53.9059 81.4612 45.836 79.1091 38.3458C74.9495 25.0989 60.9475 17.031 47.4811 17.7304C22.7502 19.0146 9.73719 43.8161 22.927 61.2277C24.7041 63.5734 27.0626 65.9961 29.5384 67.6779C32.4281 69.6408 32.397 69.6914 34.5224 71.7702C34.514 71.778 34.5056 71.7857 34.4978 71.7935C34.4901 71.8013 34.4823 71.8084 34.4745 71.8149C36.6544 74.5879 35.0431 77.4963 33.1981 80.8264C30.8654 85.0358 28.1001 90.0244 34.0199 96.0853C35.3339 97.4311 36.7904 98.4135 38.1918 99.359C42.0347 101.951 45.5001 104.29 45.7306 112.855C45.7416 113.318 45.3751 113.702 44.9127 113.713C44.4503 113.724 44.0663 113.357 44.0553 112.895C43.8487 105.202 40.7207 103.091 37.2521 100.751C35.7859 99.7625 34.2634 98.7347 32.8173 97.2543C26.0284 90.3035 29.1221 84.7211 31.7326 80.011C33.4313 76.9459 34.8916 74.3114 32.4935 72.1549C32.4767 72.14 32.4605 72.1244 32.4456 72.1082C32.1768 71.8874 31.9379 71.7106 31.6607 71.4406C30.7476 70.5514 27.0555 68.0102 24.9178 66.1269C23.4056 64.7954 20.6675 61.2329 19.6909 59.4403C18.3465 56.9723 17.4003 55.0716 16.7126 52.0848C15.179 45.4287 16.1278 38.3315 19.4908 32.4985C21.1209 29.671 23.1174 26.9673 25.6275 24.8561C29.1324 21.9088 31.2203 20.2949 36.2302 18.3787C40.0103 16.9326 43.8629 16.1483 47.6871 16H50.3824C56.8423 16.2539 63.1513 18.323 68.816 22.0849C77.5347 27.8752 83.5465 38.7978 81.649 49.8752C80.5371 56.3648 78.545 59.4559 75.1062 63.857C74.375 64.7928 72.5974 66.5705 71.6616 67.3017L66.7572 71.0092C65.94 71.741 65.4167 72.3271 64.9517 72.6302ZM54.6424 64.708C54.7117 64.6517 54.7868 64.6076 54.8658 64.5765C55.0893 64.2871 55.4422 64.0779 55.7563 63.7431C56.7652 62.6654 57.8811 61.5023 59.1329 60.5167C62.1987 58.1024 65.0773 55.6512 66.1148 51.3375C61.2836 50.0526 52.2851 50.2825 46.9086 50.6134C45.6523 50.6905 41.5309 51.1633 40.6249 50.9774C39.5459 49.903 40.5168 49.4134 41.8877 49.3046C45.5474 49.0151 48.7861 48.7826 52.5105 48.7056C59.6316 48.5586 60.059 48.8675 66.5752 49.6601C66.8174 47.2744 67.0765 45.7078 66.5998 43.2572C66.3693 42.0715 65.495 38.6022 64.5107 38.3328C64.4776 38.3237 64.4336 38.3108 64.396 38.3011C64.3507 38.2894 64.2037 38.2583 64.1545 38.2467C60.66 37.4132 60.5778 37.3018 56.389 36.9903C55.2382 36.9048 47.2072 36.6963 46.9928 36.5875C46.2766 36.2248 46.5537 35.2677 47.2162 35.0779C47.6449 34.9549 49.1086 35.0268 49.6396 35.0352C55.2855 35.1213 57.5029 35.3648 63.1047 36.1976C62.167 34.848 59.4781 33.0451 57.3261 32.1391C54.3685 30.8944 52.366 30.7823 48.922 30.7441C42.6746 30.6748 37.8259 33.2912 35.1992 36.4683C38.0519 36.2436 44.1576 34.2276 43.2367 37.1574C42.3695 37.4449 40.1664 37.4003 38.9113 37.5641C37.5856 37.7377 36.3002 37.9896 35.0153 38.2693C33.5919 38.5796 33.5789 38.3665 32.7247 40.5671C32.3251 41.5968 31.8971 43.05 31.8323 44.2533C40.7816 42.8318 47.5711 41.7664 56.7387 42.9159C57.7315 43.0403 59.5027 42.9658 59.4159 44.125C59.324 45.3535 57.3597 44.6891 56.5256 44.5822C52.9443 44.125 49.0749 44.0376 45.4748 44.2138C40.4908 44.4579 36.3889 45.1463 31.695 46.0083C31.5991 48.2924 32.1632 50.8926 32.9384 52.7978C34.163 55.8066 34.8981 55.9828 35.9433 57.673C36.9633 57.6536 38.9599 57.1498 40.0731 56.9691C42.3235 56.6032 51.9878 55.5132 52.9599 56.177C53.546 56.5779 53.4165 57.5293 52.5908 57.6821C52.1032 57.7721 50.9277 57.7099 50.3572 57.7242C46.0927 57.8291 41.8825 58.2572 37.7411 59.0939L41.0381 61.9239C42.1338 62.9983 42.9725 63.8687 44.0417 64.9496C45.6406 64.8524 51.7029 63.5825 52.0163 65.1458C52.3104 66.6146 49.58 66.0589 48.3418 66.1315C47.3263 66.191 46.3983 66.3102 45.3861 66.4578C45.445 66.8341 45.9923 67.4059 46.2494 67.9033C48.1385 71.5623 45.8977 72.5577 45.3272 70.4057C44.9211 68.8721 44.4484 68.0866 43.6887 67.1624C41.4642 64.4561 38.978 62.2568 36.1597 60.0497C30.372 55.5171 28.1985 45.801 31.7196 38.7065C33.7388 34.6369 37.3441 31.4701 42.4531 29.9145C47.7072 28.3149 54.5653 28.8447 59.1019 31.0874C63.1494 33.0885 66.6232 36.6432 67.9793 41.7302C69.45 47.2472 67.8827 53.5445 65.1084 57.1621C62.7478 60.2395 59.6076 61.9291 56.3625 65.4981C56.0905 65.7973 55.9014 65.9734 55.6741 66.0343C55.4215 66.2461 53.6762 67.7654 52.7708 69.9634C51.7223 72.5104 50.5715 75.8113 50.5683 75.8203C50.4161 76.2575 49.9382 76.488 49.501 76.3358C49.0639 76.1836 48.8333 75.7057 48.9855 75.2686C48.9888 75.2589 50.1519 71.9224 51.2211 69.3261C52.3634 66.5517 54.6346 64.7132 54.6411 64.708H54.6424ZM52.2314 86.5033C52.1867 87.9196 52.0144 89.1779 51.802 90.7503C51.655 92.2599 51.5255 93.6743 51.4147 95.02C51.3759 95.4915 51.3396 95.9526 51.3053 96.4046C51.3305 97.4544 51.4678 98.3261 51.778 98.815C52.0552 99.2521 52.765 99.2023 54.2033 98.2904C54.7933 97.9161 55.4467 97.5755 56.1202 97.2238C57.1784 96.6714 58.2923 96.0899 59.3609 95.2253C61.3827 93.5888 62.13 91.3209 62.1333 88.9279C62.1378 85.5474 60.6878 81.9105 59.1873 79.3414C59.0118 79.0402 59.1854 79.3362 59.019 79.0474C57.589 76.5787 55.3632 74.7965 53.5784 78.1232C53.4754 78.3156 53.3893 78.5163 53.3168 78.7229C53.1652 79.3284 53.0286 79.9722 52.9107 80.6567C52.8679 80.9611 52.8278 81.2531 52.776 81.5212C52.7281 81.8619 52.684 82.2116 52.6458 82.5717C52.4988 83.9537 52.3609 85.2605 52.2314 86.5033ZM50.5592 86.3576C50.6156 84.7004 50.7904 82.9104 51.1142 81.2913C51.1835 80.8043 51.2619 80.3335 51.3487 79.8802C51.4322 79.3653 51.5345 78.8278 51.6971 78.3072C53.2112 72.3394 56.1611 69.6881 57.1124 68.9634C59.3816 66.1237 64.4977 62.6875 66.4056 60.6106C68.2532 58.5991 69.9519 56.2198 70.9997 53.0005C73.3972 45.6327 71.3915 37.5091 67.1523 33.0742L64.7892 30.8484C61.215 27.9141 56.255 25.9991 51.2204 25.8786C44.1492 25.709 37.756 26.8449 32.7156 31.7971C27.9123 36.5176 25.5667 42.7657 26.7505 49.7942C27.3263 53.2123 28.7232 56.2023 30.3279 58.4243C33.6618 63.0404 39.6023 65.8478 42.2724 70.1304C42.3384 70.2049 42.3922 70.2923 42.4291 70.3901C42.6707 70.8033 42.8818 71.2307 43.0567 71.675C43.2846 72.0797 43.5858 72.5752 43.9769 73.1502C43.9879 73.1658 43.9977 73.182 44.0074 73.1982C44.7146 74.2382 45.4107 75.2919 46.0156 76.7982C46.625 78.3162 47.1314 80.2714 47.4429 83.0956C47.5077 83.6823 47.5692 84.2619 47.6282 84.8344C48.1566 88.6229 48.3411 92.5183 48.4117 94.3135C48.7057 98.9607 48.8281 102.908 48.9272 106.109C48.9369 106.426 48.9467 106.734 48.9629 107.238L49.139 112.794C49.1533 113.256 48.7906 113.643 48.3276 113.658C47.8652 113.672 47.4786 113.309 47.4637 112.846L47.2519 106.155C47.2072 104.711 47.1573 103.115 47.0893 101.369C45.7546 101.463 43.4977 99.8661 39.2526 96.6306C37.666 95.4215 36.0353 94 34.9596 92.2852C33.8295 90.4829 33.3211 88.3963 34.0989 85.9619C34.9972 83.1493 36.407 80.2331 37.9781 78.1245C39.3614 76.2678 41.4629 74.9538 43.0657 74.8004C42.9194 74.5763 42.7717 74.3574 42.6234 74.1391C42.6124 74.1249 42.602 74.1106 42.5917 74.0957C41.9084 73.0913 41.4642 72.2779 41.1967 71.7326C41.1695 71.7294 41.1449 71.7255 41.1261 71.721C39.669 68.8113 36.7658 66.8199 34.3023 64.7792C33.1936 63.8609 32.217 63.1278 31.2864 62.1992C27.9402 58.8588 24.8342 53.4843 24.7312 46.5711C24.546 34.1033 34.7122 24.6819 46.7662 24.1761C54.1236 23.8672 59.7689 25.0614 64.5528 28.504C68.5265 31.3632 72.0521 35.4756 73.3415 41.8131C74.7099 48.5385 72.8014 55.126 69.641 59.3937C67.8251 61.8456 66.4619 62.997 64.104 64.9088L59.6407 68.7711C59.2392 69.1636 58.949 69.5172 58.5702 69.907C58.5061 70.0074 58.4193 70.0961 58.3118 70.1641C58.293 70.1822 58.2742 70.2004 58.2547 70.2185H58.2301C57.8526 70.4789 56.2012 71.7352 54.7602 74.689C56.7782 73.9973 58.9581 75.5943 60.4703 78.2048C60.5234 78.2961 60.3524 78.0008 60.6386 78.4917C62.2531 81.2564 63.8132 85.1997 63.808 88.926C63.8041 91.791 62.891 94.5226 60.4184 96.5238C59.223 97.4913 58.0294 98.1143 56.8954 98.7062C56.2828 99.0261 55.6889 99.3363 55.1035 99.7074C53.2196 100.902 51.9309 101.031 51.0611 100.455C51.0061 101.738 50.9776 102.967 50.9776 104.176C50.9776 109.273 50.9543 112.758 50.9543 112.768C50.9523 113.23 50.5761 113.604 50.1137 113.602C49.6513 113.6 49.2776 113.224 49.2795 112.761C49.2795 112.754 49.2964 110.368 49.2964 104.176C49.2964 101.736 49.411 99.2146 49.626 96.3379C49.5936 94.8536 49.7646 93.1795 49.9841 91.6388C50.0405 91.2457 50.0949 90.8617 50.1292 90.6143C50.2587 89.2848 50.4031 87.8698 50.5611 86.3556L50.5592 86.3576ZM46.8199 96.2103C46.7934 95.6773 46.7642 95.0964 46.7377 94.4275C46.5557 91.5605 46.3083 88.4222 45.9593 85.0222C45.8958 84.5689 45.8271 84.1175 45.7527 83.6713C45.3628 81.3283 45.0882 79.1387 44.6038 77.8014C44.5909 77.7658 44.5773 77.7301 44.5643 77.6952C44.2684 76.9252 43.8953 76.4641 43.3753 76.4621C42.3385 76.4582 40.4967 77.5514 39.3245 79.1244C37.8583 81.0919 36.5398 83.8254 35.6946 86.469C35.0924 88.3542 35.4926 89.981 36.3779 91.3928C37.3182 92.892 38.8096 94.1852 40.27 95.2978C44.8454 98.7846 46.5531 100.049 46.7552 99.7838C46.9831 99.4846 46.9197 98.2069 46.8199 96.2103Z" stroke="#734DC0"/>
</svg>
