<svg width="97" height="128" viewBox="0 0 97 128" fill="none" xmlns="http://www.w3.org/2000/svg">
<path d="M96.9788 47.8149C96.1068 75.9758 51.9916 124.266 48.5016 128C45.0402 124.266 0.893185 75.9758 0.0212517 47.8149C-0.789417 21.4722 21.7036 0.116234 48.5016 0C75.2964 0.116234 97.7894 21.5013 96.9788 47.8149Z" fill="#EDEAF3"/>
<path fill-rule="evenodd" clip-rule="evenodd" d="M59.7679 91.6547C57.6412 91.3983 58.9643 93.3814 55.6825 95.8096C53.1948 97.6501 53.9675 98.8354 52.209 100.462C50.6469 101.906 47.6438 101.757 46.1437 100.401C44.558 98.9687 44.8887 96.9645 42.7148 95.7025C40.8527 94.6216 40.079 93.1304 39.3181 90.8325C38.6169 88.7153 38.2448 86.3859 38.019 84.0304C37.787 81.6091 37.8805 78.9707 37.0805 76.825C35.8253 73.4583 32.4363 70.0673 29.4703 68.0453C26.538 66.0461 26.1952 65.7522 23.8536 63.3951C21.3787 60.9039 19.6733 58.4229 18.0607 55.0815C13.8829 46.425 15.2635 36.6949 19.7458 29.2581C27.2539 16.8006 46.7277 8.24267 65.3146 17.3959C72.264 20.8182 78.0224 26.4967 81.0336 34.3209C83.8152 41.5486 83.0722 50.6918 79.0194 57.4313C78.0803 58.993 77.742 59.0482 78.3305 60.1349C79.5073 60.1349 79.437 59.9046 80.4493 58.1473C81.4416 56.4249 82.47 54.2022 83.0598 52.2064C83.4081 51.0277 83.6726 50.0453 83.8844 48.7556C84.8045 43.1535 84.1968 38.1915 82.5603 33.7929C74.8182 12.9839 46.3264 4.72024 26.5263 19.502C25.6666 20.1438 25.032 20.7793 24.1833 21.4353C23.5522 21.9231 22.5741 22.946 22.0183 23.5466C21.7727 23.812 21.7769 23.8563 21.5776 24.1036C21.3762 24.3537 21.2425 24.4444 21.0289 24.6952C17.9995 28.2542 15.7203 32.8051 14.6559 37.4207C14.2948 38.9861 14.084 40.5022 14 41.9998V45.0952C14.0721 46.4287 14.2332 47.7642 14.4665 49.1239C15.1791 53.2771 17.2465 57.7143 19.681 61.0123C21.3333 63.2507 22.7118 64.7308 24.8015 66.5821L30.8625 71.2118C31.9006 72.2195 31.5344 71.6902 32.4351 72.7752C33.9263 74.5716 35.4733 75.9353 35.9822 78.92C36.1453 79.877 36.392 84.5656 36.7114 86.7412C37.2487 90.4016 38.1528 93.2663 40.2912 95.9885C40.9684 96.8506 42.0873 96.945 42.7486 97.8074C43.7134 99.0658 43.4879 101.122 46.553 102.555C47.0362 102.781 47.5414 102.937 48.055 103.027H50.236C51.8235 102.753 53.3101 101.891 54.2912 100.546C54.7079 99.9754 54.7388 99.8153 55.0211 99.1382C56.141 96.4523 57.2975 98.0224 59.775 93.2C60.1259 92.5169 60.1755 92.3372 59.7679 91.6547Z" fill="#6D45BD" stroke="#7852C2"/>
<path fill-rule="evenodd" clip-rule="evenodd" d="M83.5391 70.149C83.9439 70.9015 84.1524 71.3532 84.4867 72.1975C84.9663 73.4089 84.9422 73.2249 84.284 74.0901C83.2065 75.5064 82.5995 77.023 81.3113 76.9353C80.4886 76.8794 79.9003 76.1292 79.9978 75.2488C80.0615 74.6732 80.7668 73.8925 81.0828 73.4595C81.7768 72.509 82.7485 70.9713 83.5391 70.149ZM87.0005 75.916V78.2972C86.3243 87.3388 78.0099 95.5089 66.6955 92.6837C65.4885 92.3823 64.5013 91.9646 63.5217 91.4382C62.4264 90.8497 61.5314 90.103 60.9069 89.775C60.7271 89.4232 59.472 88.433 59.0023 87.8338C58.4427 87.1197 57.9157 86.5261 57.3713 85.6151C55.5165 82.5116 55.7165 81.1011 55.2053 80.127C54.2538 80.56 52.9949 81.9726 51.3599 82.5139C49.4643 83.1416 47.6601 82.7715 46.1795 81.8365C44.9538 81.0624 43.9899 79.8527 43.2407 78.503C42.6522 77.4429 41.5599 74.9764 41.9243 73.6326C43.9647 72.6824 42.871 74.8961 44.8545 78.1751C45.6792 79.5384 47.3374 81.4221 49.7896 81.2366C51.6245 81.0979 54.6884 78.5858 54.8644 78.3219C55.0947 77.9766 55.096 75.4131 55.2109 74.6848C56.0308 69.4868 59.3748 65.2426 63.7661 62.9892C65.5322 62.0829 67.7402 61.4141 70.0384 61.2873C73.325 61.1058 74.2978 61.6855 77.0199 62.3945C78.804 62.9332 81.0213 64.633 82.331 65.9419C85.2668 68.8761 86.7333 72.3952 87.0005 75.916ZM71.9116 63.1092C72.9771 62.5515 74.1786 63.2902 74.0498 64.5428C73.9583 65.4325 72.7196 66.1705 72.2365 66.6132L68.0557 70.1288C66.8858 70.6917 65.8739 69.8103 65.9225 68.6984C65.9679 67.6589 68.6629 65.8582 69.7558 64.8449C70.2772 64.3614 71.256 63.4524 71.9116 63.1092ZM75.602 63.6034C77.9116 64.2263 81.7401 66.9158 82.5456 68.6849C81.0717 71.4465 77.819 73.71 78.5274 76.3037C79.1585 78.6145 82.2862 79.4516 83.9811 77.2121C84.396 76.6639 84.8408 75.8321 85.2896 75.5471C86.0175 78.2537 84.6858 82.2328 83.6136 84.253C79.4995 92.0055 68.9017 94.0821 61.7713 88.3405C58.2064 85.4699 55.111 79.2189 57.3295 72.6593C58.9362 67.9086 63.4268 63.4329 69.4159 62.9393C69.0145 63.5289 67.82 64.4119 67.1856 64.9807C66.6067 65.4998 65.4747 66.258 64.9808 66.9089C63.4399 68.9398 64.8501 71.6882 67.1815 71.8398C69.0555 71.9617 70.4085 70.1186 72.2904 68.6588C74.7511 66.7501 75.6706 66.1275 75.6021 63.6033L75.602 63.6034Z" fill="#6D45BD" stroke="#7852C2"/>
<path fill-rule="evenodd" clip-rule="evenodd" d="M46.9111 27.5676C55.885 26.8537 64.6124 30.032 67.6226 39.0284C69.5123 44.6762 67.9779 51.3004 64.4634 55.7114C62.7732 57.8328 57.8803 60.7997 53.6198 66.2439C51.7893 68.5828 51.7911 70.9838 50.7112 74.0255C48.9752 78.9154 47.5517 71.3427 47.0804 69.8241C46.1315 66.7671 44.4641 65.1049 42.8723 63.3395C41.2498 61.5401 39.1758 59.8562 37.159 58.2198C35.1143 56.5607 33.7271 55.1311 32.364 52.321C29.7155 46.8609 29.9698 39.9614 33.1347 35.2277C35.6783 31.4233 40.298 28.0936 46.9111 27.5675V27.5676ZM46.4103 26.0362C39.4375 26.7343 34.4478 30.3226 31.7781 34.4446C28.3167 39.7893 28.0697 46.665 30.8472 52.8509C32.9385 57.5087 36.6476 59.5505 40.5168 63.2725C43.9886 66.6123 44.8829 67.5617 46.0991 72.2331C46.4911 73.7383 46.8386 75.3216 47.7241 76.3056C48.992 77.7146 50.7242 77.195 51.5685 75.8811C53.0154 73.6296 52.9405 69.9355 54.6284 67.5379C55.4955 66.3063 57.5099 64.0698 58.6588 63.017C58.941 62.7583 59.1461 62.6135 59.4222 62.3518C60.9981 60.8578 61.6414 60.4107 63.3279 58.9912C66.6795 56.1698 68.7674 52.6988 69.6644 47.9419C70.7369 42.2545 69.2018 35.7586 65.0298 31.791C62.723 29.5973 60.4924 27.9806 56.8295 26.8812C53.6623 25.9305 49.854 25.6915 46.4104 26.0363L46.4103 26.0362Z" fill="#6D45BD" stroke="#7852C2"/>
<path fill-rule="evenodd" clip-rule="evenodd" d="M46.918 20.7305C36.6548 21.2784 27.5458 27.3711 24.4167 37.3491C21.9225 45.3021 23.964 53.837 29.1052 59.8558C31.7205 62.9176 34.8017 64.655 36.8756 66.7695C38.5631 68.4898 39.527 67.1911 38.6113 66.1778L36.0054 63.9366C35.111 63.1756 32.6472 61.2857 31.9667 60.5644C31.5643 60.1379 31.1564 59.7375 30.7484 59.356C28.5309 57.2824 26.4187 53.0235 25.6061 49.822C24.0771 43.7979 25.1948 38.383 27.7162 33.6604C32.7355 24.2594 44.6472 20.8174 55.0677 22.6501C57.6394 23.1024 60.2744 24.0012 62.3173 25.103C65.0719 26.5885 65.9104 27.3542 67.9526 29.2999C75.3396 36.3382 76.0124 49.3111 69.5384 57.7898C69.2096 58.2205 68.5972 58.7094 68.613 59.2834C68.6363 60.1307 69.5462 60.2034 70.0347 59.7129C71.9824 57.7571 74.2556 52.7959 74.9401 49.9396C77.4717 39.3748 72.7014 28.9016 63.2794 23.8506C58.3877 21.2282 53.2658 20.3916 46.9182 20.7305H46.918Z" fill="#6D45BD" stroke="#7852C2"/>
<path fill-rule="evenodd" clip-rule="evenodd" d="M75.456 82.6981C75.4488 82.7098 74.496 83.5126 74.475 83.5287C73.3791 84.3776 69.9687 87.7248 69.0238 87.7489C67.9628 87.7761 67.0933 86.6713 67.669 85.5677C68.001 84.9314 71.6813 82.0812 72.7517 81.094C74.8338 79.1736 76.1483 81.5821 75.4559 82.698L75.456 82.6981ZM62.983 76.5223C62.7868 75.4328 63.6301 74.5855 64.7467 74.7805C65.7683 74.959 67.201 77.9988 67.75 78.9562C68.3402 79.9854 67.4347 80.2728 67.4371 81.6523C67.4384 82.4329 67.6936 82.5697 67.7679 83.0445C67.8448 83.5363 67.3104 83.5843 66.899 83.2325C66.4345 82.8354 63.0372 76.823 62.983 76.5223ZM69.0533 82.0959C68.9583 81.1213 71.4285 74.9841 71.7327 74.5151C72.1868 73.8151 73.3071 73.5061 74.0361 74.2328C74.9652 75.159 74.0694 76.5628 73.522 78.0147C73.2868 78.6388 73.3485 78.7757 72.8802 79.085L70.9499 80.5722C70.4405 81.0393 69.6792 81.7318 69.0533 82.0959V82.0959ZM68.7209 77.5247C67.9657 76.1759 66.9858 74.0919 65.7965 73.488C63.5635 72.3539 59.8643 74.4343 62.1123 78.3109L65.3695 83.8886C65.7682 84.4988 65.7964 84.3103 66.2556 84.7872C65.5392 86.8174 66.2856 88.8058 68.2723 89.2486C70.446 89.7332 71.88 87.7314 72.9701 86.8703C73.7246 86.2742 76.3854 84.0886 76.7883 83.4154C77.3057 82.551 77.3614 81.4166 76.9038 80.4811C76.2495 79.1434 75.8278 79.5452 74.9234 78.8021C75.2689 77.6423 76.1551 76.3093 76.0207 74.9608C75.8882 73.6311 74.8167 72.5178 73.5506 72.2951C69.8275 71.6402 70.0348 75.9585 68.721 77.5246L68.7209 77.5247Z" fill="#6D45BD" stroke="#7852C2"/>
<path fill-rule="evenodd" clip-rule="evenodd" d="M40.3387 38.4058C41.9565 37.9251 43.1794 38.8659 43.7496 39.9499C44.5318 41.437 45.251 39.8851 47.2339 41.4523C49.5428 43.2771 48.9177 46.7667 46.3385 47.8544C44.9116 48.4563 43.3379 47.9578 42.4256 47.2545C40.9754 46.1365 41.5264 44.4496 40.668 44.028C40.058 43.7285 38.3741 43.4769 38.275 41.3109C38.2084 39.8553 39.1738 38.7518 40.3387 38.4057V38.4058ZM40.0228 36.8945C35.9205 38.0037 35.7829 42.9824 38.6856 44.8675C40.4052 45.9843 39.2289 44.8866 40.1121 46.7198C40.4977 47.5203 40.9839 48.0764 41.5789 48.535C44.694 50.9363 48.8471 49.4452 49.9692 46.066C51.0065 42.9419 48.9428 39.6543 45.8191 39.1511C44.9372 39.009 45.1734 39.1979 44.7255 38.5472C43.9211 37.3789 42.2073 36.3038 40.0228 36.8945Z" fill="#6D45BD" stroke="#7852C2"/>
<path fill-rule="evenodd" clip-rule="evenodd" d="M59.8312 42.7266C61.4602 42.3438 62.9259 43.5731 63.19 44.904C63.5429 46.6828 62.3243 48.0833 60.9597 48.3436C57.3108 49.0392 55.9573 43.637 59.8313 42.7266H59.8312ZM59.882 41.1058C54.0109 41.842 55.0542 50.543 60.8735 49.9489C66.7118 49.3529 65.7104 40.3749 59.882 41.1058Z" fill="#6D45BD" stroke="#7852C2"/>
</svg>
