<svg width="97" height="128" viewBox="0 0 97 128" fill="none" xmlns="http://www.w3.org/2000/svg">
<path d="M96.9788 47.8149C96.1068 75.9758 51.9916 124.266 48.5016 128C45.0402 124.266 0.893185 75.9758 0.0212517 47.8149C-0.789417 21.4722 21.7036 0.116234 48.5016 0C75.2964 0.116234 97.7894 21.5013 96.9788 47.8149Z" fill="#EDEAF3"/>
<path fill-rule="evenodd" clip-rule="evenodd" d="M31.4898 35.58C31.9012 35.3624 32.2684 35.1985 32.6346 34.9042C33.0183 34.5958 33.1811 34.3143 33.5909 34.04C35.0419 36.2057 35.5182 36.3503 36.2524 39.5C35.782 39.3745 35.805 39.2196 35.3144 39.0375C34.9247 38.8928 34.478 38.8523 34.0314 38.7797C33.3047 38.6617 32.1304 38.38 31.3495 38.38C31.7554 37.5345 31.4897 36.5005 31.4897 35.58L31.4898 35.58ZM26.3614 22H26.7723C27.365 22.041 27.8778 22.2413 28.2089 22.3094C28.8131 22.4336 29.1559 21.797 30.7037 22.2219C32.4511 22.7015 31.6773 23.5116 33.2443 24.0264C34.8364 24.5494 35.1309 26.2314 35.2865 26.4653C35.4941 26.7773 35.5733 26.7065 35.9163 26.9559C36.9498 27.7077 37.3092 29.3452 36.7213 30.7288C36.1105 32.1663 35.1446 31.9599 34.4312 32.7801C34.6947 33.1733 34.9229 33.2947 35.2324 33.6594C37.4317 36.2517 38.0067 40.209 38.4596 43.594C38.5326 44.1396 38.4921 44.6091 38.5746 45.1592C38.7448 46.2948 38.6336 66.403 38.6336 68.0602C38.6336 72.7602 38.3603 73.9741 40.3115 77.8635C40.5164 78.272 40.6166 78.5541 41.004 78.7003C40.9709 80.0727 41.7727 79.9693 40.0344 80.433C38.4488 77.4895 37.0769 75.7231 37.0924 71.5607L37.0928 48.0403C37.0928 43.9877 37.1722 40.2893 33.1706 40.2002C33.8947 40.8292 34.4955 41.3701 34.6099 42.6689C34.642 43.0327 34.6567 42.891 34.5729 43.4187C34.5017 43.8678 34.4469 43.8465 34.4724 44.2339C34.579 45.8523 35.009 46.688 32.931 48.0806C32.1775 48.5856 32.6767 48.5048 32.0745 49.1846C31.1412 50.2381 29.7394 50.0796 29.3687 50.2603C29.2087 50.3383 29.105 50.4946 28.7869 50.6588C28.5177 50.7978 28.398 50.8314 28.0532 50.9063C26.1878 51.3117 26.0416 50.203 24.9478 50.5866C22.7077 51.3724 20.7038 49.8387 20.7038 47.6202C17.8979 46.1363 19.0681 44.8084 18.4294 43.8734C18.1679 43.4906 18.06 43.5976 17.7555 43.0069C17.0673 41.6723 17.1977 40.6918 17.9023 39.6402C17.6915 38.7357 17.1743 38.5673 17.3529 37.135C17.5123 35.8572 18.1969 36.2891 17.5785 35.0712C16.7134 33.3672 17.581 31.8777 18.7427 31.1002C18.211 28.819 19.6637 27.0789 21.4042 27.0402C21.5433 25.3697 22.6696 25.0055 23.4527 24.6075C24.2089 24.2233 23.7004 24.0624 24.3198 23.2341C24.9843 22.3455 25.7046 22.048 26.3615 22.0002L26.3614 22ZM29.4407 23.5943C31.4453 23.453 30.8943 24.9719 31.8453 25.2682C32.3452 25.424 32.571 25.2895 33.069 25.6014C33.9617 26.1605 33.4961 26.915 33.9567 27.5157C34.2595 27.9108 35.1991 27.8579 35.4776 28.936C35.713 29.8469 35.2049 30.5159 34.6854 30.7991C33.2765 31.5671 34.0047 30.5101 33.1027 32.1493C32.0107 34.1336 30.1906 34.3125 29.9757 34.7352C29.8529 35.6444 30.1734 36.4951 30.0119 37.5796C29.6024 40.3299 29.4347 38.5204 31.0241 40.5274C32.1988 42.0108 33.0293 41.1578 33.1443 42.9853C30.6326 42.1951 30.5079 43.7811 32.1238 44.197C33.6738 44.5959 33.1227 46.6805 31.6526 46.4899C30.8756 46.3892 30.8693 45.9519 30.6589 45.2434C30.222 43.7722 28.3372 44.9756 29.7271 46.8606C30.2164 47.5243 30.3563 47.4196 31.0803 47.9002C30.3546 49.1679 29.6611 48.3547 28.78 48.8092C28.2972 49.0582 27.3835 50.1017 26.4448 49.1405C26.3688 49.0246 27.3003 46.7247 25.7654 47.0426C24.8673 47.2286 25.6224 48.7741 24.1726 49.1522C23.0374 49.4482 22.1316 48.5866 22.2648 47.5082C22.4258 46.2046 23.4554 46.4504 24.3547 45.9743C24.5893 44.9238 24.0271 44.5624 22.8862 44.9014C21.8086 45.2217 21.8898 45.5964 21.1241 46.1441C20.534 45.8727 20.1146 45.5357 20.1035 44.6825C20.0898 43.6363 20.743 43.565 19.6944 42.8885C17.6107 41.5442 19.7816 39.9578 19.7612 39.5002C19.5449 38.8229 18.1045 37.9426 19.1339 36.6897L19.3408 36.6195C20.0379 36.5165 20.5025 36.8795 21.5898 36.3284C23.5977 35.3107 22.5992 33.4892 21.4798 34.5254C21.0965 34.8802 20.9127 35.293 20.0147 35.1837C18.8895 35.0468 18.3363 33.5891 19.0903 32.7077C20.1221 31.5015 21.2826 33.0121 21.9561 32.3528C23.0403 31.2913 20.8042 30.8549 20.1572 30.7081C19.8044 28.0629 21.9256 28.7954 22.4705 28.2678C23.2143 27.7697 22.4648 26.5399 23.9256 26.0305C24.4674 26.5991 24.3976 26.9002 25.1191 27.3932C25.6687 27.7689 26.714 27.9231 26.6007 26.9162C26.5082 26.0947 25.7233 26.5097 25.3841 25.5776C24.766 23.8786 26.6762 22.8437 27.7915 23.8748C28.6298 24.6499 28.0497 25.1577 28.1459 25.9082C28.3224 27.2855 30.5193 26.398 29.4408 23.5944L29.4407 23.5943Z" fill="#6D45BD" stroke="#7852C2"/>
<path fill-rule="evenodd" clip-rule="evenodd" d="M66.9299 39.5006C66.9494 38.6226 67.5335 37.199 67.8613 36.5116C68.271 35.6522 68.8789 34.6574 69.5913 34.1807C70.2056 34.5917 70.2515 34.8927 71.5524 35.5807C71.5524 36.699 71.6168 37.4713 71.6926 38.3807C70.3501 38.3807 67.8893 38.8585 66.9299 39.5007V39.5006ZM84.7199 36.47V37.0293C84.6724 38.5563 84.2312 40.0354 83.4022 41.1237C82.1594 42.7549 82.5182 41.8256 82.6174 43.278C82.7679 45.4786 81.9891 46.8603 81.0624 48.0252C80.63 48.5688 79.9537 49.1277 79.3031 49.4869C73.1107 52.9062 66.6937 45.8489 70.5719 40.0606C69.7925 40.2421 68.6679 40.3027 68.0523 40.6224C65.7649 41.8104 66.0894 45.2174 66.0894 47.6207C66.0894 51.5873 66.0894 55.554 66.0894 59.5207C66.0894 63.4811 66.2107 67.6292 66.094 71.5653C66.0071 74.4962 65.0346 77.1764 63.574 79.5483C63.4006 79.83 63.1858 80.093 63.1477 80.4406C62.8086 80.2371 63.4311 80.4937 62.8441 80.3553C61.4099 80.017 61.998 79.6749 62.2116 78.7007C62.9683 77.9963 63.9186 75.5005 64.1883 74.1407C64.5996 72.0667 64.5485 70.3493 64.5485 67.9207L64.5452 44.9573C64.5387 43.4429 64.8583 43.0195 64.9512 42.1431L65.3515 39.1831C65.5395 38.2472 65.7876 37.4991 66.1071 36.7184C67.1542 34.16 67.7785 34.0227 68.6108 32.7806C66.347 28.5048 69.0542 24.1536 72.8725 23.1798C76.1872 22.3344 79.2026 24.2376 80.4733 26.9447C80.8675 27.7844 81.0778 28.9343 81.0778 30.1206C81.8427 30.6325 82.2181 30.8592 82.8663 31.5531C84.0479 32.8183 84.6622 34.6487 84.7199 36.4699V36.47ZM73.3009 24.6397C76.425 23.8707 78.9173 26.1029 79.4346 28.5513C79.5713 29.1981 79.3539 30.5752 79.6382 30.9915C79.7077 31.0933 80.8707 31.7604 81.1576 31.9976C83.3201 33.7852 83.8405 37.0278 82.5714 39.5917C81.3481 42.0632 80.615 40.514 81.053 42.8854C81.616 45.9337 79.3765 48.433 76.8145 48.8238C71.9651 49.5635 69.2032 43.7998 72.0477 40.5572C73.9532 38.3851 73.2382 40.2892 73.0397 37.1282C73.0015 36.5198 73.2772 35.1151 73.0684 34.7682C72.7405 34.2229 70.1494 33.7582 69.4418 30.8293C68.6457 27.5342 70.8265 25.2488 73.3008 24.6397H73.3009Z" fill="#6D45BD" stroke="#7852C2"/>
<path fill-rule="evenodd" clip-rule="evenodd" d="M39.6984 81.4997C39.1096 82.0351 38.7737 81.642 38.6497 82.7746C38.5592 83.6015 38.4545 84.1314 38.572 84.9188C38.8658 86.8893 38.7385 86.964 39.5316 88.8635C40.01 90.009 40.8056 90.9106 41.4953 91.8008C42.6622 93.3071 45.5471 94.4606 46.3289 96.6301C46.6504 97.5222 46.4228 101.704 48.1251 103.375C48.9225 104.158 48.5516 103.26 49.2592 104.621C49.681 105.433 50.3447 105.913 51.3312 106H52.0044C53.7511 105.849 53.9281 104.525 54.4051 103.981C55.2436 103.026 55.7469 103.081 56.2881 100.963C56.4673 100.262 56.5058 99.7631 56.6273 98.9222C56.9792 96.4868 56.2244 96.0942 59.7875 93.5404C63.2757 91.0404 65.1515 87.0942 64.5304 82.6388C64.4108 81.7809 64.3759 81.2938 63.3954 81.2197C62.8718 81.9815 62.8256 81.6003 63.035 82.7399C63.6194 85.9205 62.4897 88.8108 60.3762 91.0478C59.2357 92.2548 58.9445 92.1938 57.9751 92.991C55.1097 95.3474 55.438 96.2948 55.1117 99.0896C54.6829 102.763 53.5846 102.274 52.8759 103.572C52.5882 104.099 52.4385 104.475 51.7738 104.54C50.934 104.621 50.7237 104.224 50.4685 103.691C49.5977 101.87 48.6432 103.067 48.1397 99.2813C47.7874 96.6325 48.2417 95.4162 45.4522 93.1652C44.9905 92.7926 44.6706 92.5776 44.1696 92.2106C41.9822 90.6078 40.3603 88.0622 40.09 85.2542C40.0174 84.5005 40.0392 83.8731 40.1339 83.1463C40.3255 81.6755 39.8737 82.1864 39.6986 81.4998L39.6984 81.4997Z" fill="#6D45BD" stroke="#7852C2"/>
<path fill-rule="evenodd" clip-rule="evenodd" d="M49.1092 92.0072C49.4665 90.2881 46.9978 90.385 45.7224 87.5777C44.7537 85.4457 45.1683 83.0051 46.4521 81.475C49.0691 78.356 55.2471 78.59 57.3646 81.9597C58.4816 83.7374 58.5896 86.2347 57.4428 88.1168C56.3469 89.9154 54.5822 90.5011 53.5586 92.0797C52.9972 92.9457 53.0116 94.2157 52.4076 94.85C51.3848 95.9241 50.7799 94.4835 50.4869 93.599C50.0723 92.3474 48.6205 92.8231 49.2413 94.5565C50.1248 97.0234 52.5973 97.3254 53.8613 95.3219C54.474 94.3509 54.2696 93.3406 55.0254 92.5631C56.4313 91.1166 57.8077 90.5019 58.8693 88.567C62.1228 82.6366 56.0561 75.4017 48.1243 78.5244C43.4318 80.3718 41.8233 87.0389 46.6679 90.9735C48.2532 92.2611 48.226 92.5707 49.1093 92.0071L49.1092 92.0072Z" fill="#6D45BD" stroke="#7852C2"/>
<path fill-rule="evenodd" clip-rule="evenodd" d="M20.4241 61.6203H20.144C20.0125 61.128 19.2932 60.2052 18.9672 59.7165C17.3796 57.3365 17.1965 57.4422 16.0013 60.56C15.628 61.5335 15.3073 62.4067 14.9774 63.3167C14.6524 64.2128 13 68.2293 13 68.9005C13 69.2211 13.0475 69.0632 13.1401 69.4605C14.3931 69.7523 14.2186 69.7129 14.9823 67.6616L17.6226 60.6404C17.9807 60.9027 18.7251 62.1533 19.0234 62.6004C19.2526 62.9439 19.4498 63.2363 19.6924 63.6118C21.2267 65.987 21.6792 62.6225 21.9089 61.7043L23.5341 55.2086C23.7061 54.5212 24.5549 52.3804 23.3658 52.3804C22.4573 52.3804 22.5009 53.0262 22.2168 54.1721L20.9845 59.1005C20.8204 59.7562 20.4394 60.9321 20.4241 61.6204V61.6203Z" fill="#6D45BD" stroke="#7852C2"/>
<path fill-rule="evenodd" clip-rule="evenodd" d="M49.8413 39.7804C48.7208 41.4527 46.8996 41.9557 46.8996 43.1405C46.8996 43.9085 48.692 44.0157 49.5026 44.1789C50.5833 44.3966 51.489 44.5459 52.5608 44.7624C53.9258 45.0382 57.6111 45.9062 58.6661 45.6605C58.8581 44.859 58.8923 45.3707 58.6661 44.4005L51.6515 43.0113C50.9818 42.8768 49.909 42.6328 49.2808 42.5806C50.0156 41.4839 52.5026 40.1822 52.5026 38.9405C52.5026 38.1226 50.8444 38.2978 49.9895 38.2322C47.637 38.052 42.5441 37.5405 40.596 37.5405C39.2981 39.4777 41.4617 38.961 44.1363 39.3222C45.7295 39.5374 48.408 39.4469 49.8412 39.7805L49.8413 39.7804Z" fill="#6D45BD" stroke="#7852C2"/>
<path fill-rule="evenodd" clip-rule="evenodd" d="M48.8601 30.5395C48.8445 29.8423 48.7106 29.7465 48.7209 28.1586C48.7284 27.0167 48.6471 26.6686 48.4399 25.7795C47.1737 25.4847 47.4873 25.6816 45.6033 27.5645C44.8713 28.2961 39.4749 33.4205 39.4749 33.8996C39.4749 34.62 39.5945 34.7396 40.3153 34.7396C40.9048 34.7396 45.9624 28.974 47.1792 28.1595C47.1792 29.2353 47.3176 29.9355 47.3244 30.8144C47.335 32.1665 47.0707 32.4177 48.0197 32.9195C48.5727 32.7907 48.8532 32.5166 49.2488 32.188C49.6583 31.8478 50.0105 31.5838 50.4193 31.2579C51.1402 30.6832 57.2648 25.977 57.2648 25.6396C57.2648 24.0199 55.8797 24.9609 55.2712 25.4671L48.86 30.5396L48.8601 30.5395Z" fill="#6D45BD" stroke="#7852C2"/>
<path fill-rule="evenodd" clip-rule="evenodd" d="M26.8681 52.9398C26.8681 53.7132 28.9197 56.2546 29.4733 57.056C30.3998 58.3975 31.3058 59.5985 32.191 60.9198C29.4691 60.8592 27.4284 59.5808 27.4284 61.3398L32.2494 70.2415C32.9633 71.4603 32.8469 71.3785 33.8719 71.1399C34.1687 69.901 33.8973 70.1578 33.0306 68.4806C32.8336 68.0992 32.6764 67.8362 32.4773 67.4936L31.3512 65.399C30.9897 64.6994 29.8147 62.8031 29.6695 62.1798C32.7866 62.1798 34.5722 63.4752 34.5722 61.7598C34.5722 61.4687 30.072 55.3041 29.5294 54.4797C28.8778 53.4899 28.423 52.6918 27.5682 52.2397C27.2654 52.3999 26.8678 52.4837 26.8678 52.9397L26.8681 52.9398Z" fill="#6D45BD" stroke="#7852C2"/>
<path fill-rule="evenodd" clip-rule="evenodd" d="M41.7165 77.7934C43.1938 78.1711 42.8912 76.9571 45.8428 75.4091C47.2637 74.6638 49.2311 74.108 51.1009 74.0187C54.4645 73.8581 58.9931 75.6125 60.5661 77.8586L61.6076 77.8091C61.7666 76.9197 61.683 76.6215 60.2898 75.5372C55.9561 72.1643 50.2884 71.5613 45.2172 74.0791C44.3155 74.5268 43.6185 75.0323 42.8549 75.6381C42.1588 76.1905 41.0745 76.8234 41.7163 77.7933L41.7165 77.7934Z" fill="#6D45BD" stroke="#7852C2"/>
<path fill-rule="evenodd" clip-rule="evenodd" d="M26.3319 30.3613C27.8481 29.9276 28.3358 32.2737 26.9631 32.6093C25.4018 32.9911 24.7457 30.8151 26.3319 30.3613ZM26.0029 28.9366C22.5567 29.7656 23.9062 35.0115 27.373 33.9877C30.5152 33.0597 29.3602 28.1291 26.0029 28.9366Z" fill="#6D45BD" stroke="#7852C2"/>
<path fill-rule="evenodd" clip-rule="evenodd" d="M24.0549 37.9152C25.4162 37.2395 26.4111 39.3275 25.0981 39.9916C23.6489 40.7246 22.5865 38.6441 24.0549 37.9152ZM23.7089 36.4724C20.4408 37.5189 22.0544 42.5102 25.3325 41.4635C26.5192 41.0846 27.52 39.7967 27.0471 38.1972C26.6911 36.993 25.3753 35.9387 23.7089 36.4723V36.4724Z" fill="#6D45BD" stroke="#7852C2"/>
</svg>
