<svg width="97" height="128" viewBox="0 0 97 128" fill="none" xmlns="http://www.w3.org/2000/svg">
<path d="M96.9788 47.8149C96.1068 75.9758 51.9916 124.266 48.5016 128C45.0402 124.266 0.893185 75.9758 0.0212517 47.8149C-0.789417 21.4722 21.7036 0.116234 48.5016 0C75.2964 0.116234 97.7894 21.5013 96.9788 47.8149Z" fill="#EDEAF3"/>
<path fill-rule="evenodd" clip-rule="evenodd" d="M62.0248 85.685C66.1993 84.4777 68.4072 89.5465 68.1684 93.4925C67.9287 97.4521 65.6136 101.382 62.5305 102.144C58.3038 103.189 56.1776 98.2335 56.4064 94.3153C56.6474 90.1912 58.8062 86.6159 62.0248 85.6851V85.685ZM46.9029 62.9899C48.8359 63.1028 49.5145 62.8943 51.2199 62.5755C52.222 65.9141 50.9299 68.7535 47.8883 69.3487C47.2573 67.0661 46.9272 65.5807 46.9029 62.9899ZM46.341 69.4328C44.5023 69.119 43.0611 67.6501 42.2522 66.5347C40.8843 64.6482 41.1676 64.2065 40.7675 60.9709C42.3617 61.5411 43.4075 62.3871 45.4092 62.7326C45.7176 67.7085 45.645 65.4795 46.3411 69.4328H46.341ZM65.8381 51.9319C69.4411 50.8928 68.837 54.8831 66.8317 57.8151C65.7432 59.4066 63.5171 61.7068 61.1226 62.3688C57.3717 63.4057 57.9917 59.3214 60.032 56.4827C61.3404 54.6622 63.1455 52.7084 65.8382 51.9319L65.8381 51.9319ZM47.6116 43.1385C48.0047 39.941 53.0526 38.061 55.2589 36.9872C58.1823 35.5645 60.7718 32.5924 65.0554 33.1869C75.8692 34.6881 71.2173 43.2152 69.0373 51.0924C64.9553 48.3007 59.3467 53.8502 57.5875 57.8412C56.3695 60.6041 56.7577 64.0366 60.1397 63.9927C63.3689 63.9509 65.9173 60.9184 66.5968 60.523C66.3555 61.7 62.7638 72.4262 62.3398 72.8412C60.9609 73.5725 56.2008 74.0883 54.3472 73.9717C51.7347 73.8075 49.8905 72.8376 48.6334 70.7324C50.6221 69.8553 51.6955 69.2587 52.5094 67.4865C53.6081 65.0943 52.8496 63.6691 52.4385 61.369C53.309 61.1543 54.064 60.6576 54.824 60.2118C55.6879 59.7052 56.4978 59.6066 56.2329 58.3321C55.0917 57.9403 54.2295 58.9338 53.1007 59.4838C48.7293 61.6135 46.5628 62.1005 42.2393 59.9384C41.3805 59.5089 39.7295 58.6183 39.3089 58.0594C38.8497 57.4493 37.9955 55.702 37.6326 54.9388C36.9893 53.5855 36.5921 53.0044 37.328 51.4916C39.462 47.1049 47.4371 44.1583 52.9357 43.4227C55.8317 43.0353 59.0406 43.4882 61.7773 44.0538C63.1916 44.3461 64.3852 44.5714 64.8034 45.8133C65.35 47.4363 64.1724 48.4569 64.6248 49.6532L65.4715 49.7765C66.7334 48.4783 66.6244 45.642 65.6632 44.2964C64.7349 42.9967 62.5049 42.643 60.3877 42.2886C54.9649 41.3809 52.5244 41.878 47.6116 43.1385ZM31.3748 71.8796C31.6211 70.5587 29.2623 68.1375 28.4261 67.116C27.9217 66.4999 27.5917 66.3875 27.1962 65.6882C29.1128 65.5518 30.7225 64.9274 31.4932 63.8605C32.0575 63.0795 33.7271 59.676 31.2921 60.207C30.7081 61.7391 31.0646 62.4529 29.7622 63.4561C28.957 64.0763 26.8164 64.548 25.6693 64.0668C23.604 63.2005 23.3495 58.5952 23.4087 56.54C25.0763 57.0428 26.4299 57.8295 28.2048 55.7731C28.6811 55.2213 29.0847 54.7139 28.4824 54.1401C27.472 53.2702 27.3392 54.9534 26.5093 55.4019C25.4055 55.9983 24.4019 55.2801 23.591 54.9132C23.7189 52.1104 26.3481 43.041 27.7173 41.5143C28.6654 43.4793 31.8087 45.1651 31.6774 42.796C30.0105 41.4854 26.6921 42.1663 30.7806 35.6838C32.0569 33.6602 34.5169 30.2035 36.7188 29.5368C40.1122 28.5093 43.3372 31.8324 42.0802 35.2322C41.5986 36.5346 40.5538 37.8915 39.1756 38.2766C36.9067 38.9104 35.4677 37.286 34.0908 37.669C33.4692 39.7784 37.8013 39.9351 39.1565 39.8141C38.1953 42.2701 36.3325 44.0364 35.1512 48.4808C33.8017 47.9929 32.8695 47.1875 31.1043 47.9208C27.7485 49.315 28.9294 52.1025 30.3086 50.4376C31.8661 48.5575 32.8711 48.9191 34.7995 50.0041C35.5211 53.9718 35.371 54.1517 37.6413 58.0726C38.8234 60.1142 40.5913 63.8859 39.2188 66.7786C38.0154 65.7216 36.903 64.5807 34.4784 65.5197C32.3233 66.3541 30.978 69.2859 33.188 69.1473C33.961 68.2587 33.2973 67.5647 35.0138 66.8832C36.3848 66.3388 37.3421 66.9237 38.0076 67.6386C39.0821 68.7928 37.9752 70.333 39.3755 69.9229C40.1012 69.7103 40.4853 67.9375 40.6771 67.1237C41.7841 67.8645 42.9523 70.7837 47.0956 70.9691C47.9179 72.9619 50.0305 74.6998 52.7525 75.2442C56.1076 75.9153 58.6247 74.982 61.7189 74.5955C61.1769 76.7476 59.7974 79.9433 58.98 82.0661C58.0294 84.5349 57.1205 87.0649 56.1078 89.4559C51.6994 99.8644 60.6621 108.716 67.0303 100.7C70.5333 96.2901 70.5469 88.5393 66.8178 85.4964C64.4389 83.5552 61.2026 83.6834 59.387 85.3065L63.4887 74.1858C70.3896 72.9825 75.3751 78.3809 77.0527 83.2114C78.1394 86.3407 78.0393 90.1662 77.6597 93.6183C77.4732 95.3148 77.1828 96.9683 76.8601 98.6093C76.7422 99.2084 76.3688 100.449 76.3279 100.957C76.2303 102.172 77.4117 102.398 77.7663 101.337C78.5214 99.0775 79.1571 94.115 79.3144 91.5088C79.5329 87.8913 79.3051 84.3875 77.8895 81.3855C76.1416 77.6785 72.9904 74.3699 69.0083 73.0505C66.7332 72.2967 66.0461 72.7703 64.0604 72.5364L66.9315 64.3679C67.8781 61.534 68.7747 58.676 69.5732 55.7623C69.966 54.3294 70.1847 52.6444 70.5705 51.1224C70.9478 49.6343 71.3782 48.262 71.8506 46.7784C72.6762 44.1852 73.8678 40.1739 73.1714 37.2866C72.4364 34.2392 70.1369 33.022 67.0774 32.1289C61.1476 30.3978 58.8831 33.4377 54.7115 35.6145C53.454 36.2707 52.138 36.7946 50.9125 37.4365C48.6946 38.5981 46.3177 40.6695 45.9612 43.7323C42.4821 44.5531 37.5906 47.8907 36.3842 50.101C36.7563 46.8367 38.8007 43.4138 40.2374 40.996C41.1003 39.5441 41.9859 38.3613 42.8312 36.9719C43.7833 35.4069 44.1986 33.6681 43.4169 31.625C42.0938 28.167 37.8227 26.8222 34.8201 28.8003C32.7723 30.1493 30.3368 33.525 28.831 36.0517C25.3725 41.8545 20.2706 53.7829 22.4067 61.5545C23.3038 64.8181 25.233 65.5673 26.6133 67.2731C27.6953 68.6103 28.5653 69.4526 29.5626 70.9481C30.0898 71.7386 30.314 72.3266 31.3747 71.8796H31.3748Z" fill="#6D45BD" stroke="#7852C2"/>
<path fill-rule="evenodd" clip-rule="evenodd" d="M80.0446 24.6617C81.8219 37.3178 79.5702 45.527 74.9176 55.6331C73.932 57.774 72.8146 59.9108 72.0957 62.2442C69.709 69.9894 77.4599 70.3713 81.2799 79.9787C83.2584 84.9548 82.7466 91.1133 81.8743 96.512C81.4775 98.9676 80.8265 101.882 79.7888 103.854C78.6421 106.032 76.0573 107.987 74.3652 107.413C72.0806 106.638 73.312 102.179 73.6587 99.8763C74.0585 97.2207 74.5782 94.4615 74.8417 91.7876C75.8078 81.9871 69.799 78.4245 69.0238 79.8905C68.7308 80.9063 70.1216 81.2233 70.8251 81.8246C75.352 85.6939 72.7809 95.7793 71.9548 101.329C71.7246 102.875 71.9101 103.318 70.9872 104.159C67.246 107.566 61.2311 108.079 56.4034 104.841C52.1391 101.981 52.8436 99.3693 52.2424 97.4167C49.5456 96.5702 50.9622 103.023 55.5498 106.027C56.2222 106.467 58.1597 107.354 58.5946 107.718C62.2631 109.166 65.4947 108.684 68.9466 107.248C69.965 106.824 70.653 106.217 71.569 105.733C71.9351 110.129 77.2345 110 80.323 105.878C82.3646 103.154 83.1572 98.3709 83.751 94.0828C84.9593 85.3563 83.6955 78.1776 77.9858 72.0199C77.6331 71.6395 77.3271 71.4133 77.0072 71.0125C73.3021 66.3712 70.7506 67.1451 76.5914 55.6571C80.9773 47.0306 82.7632 37.0908 81.9849 27.1568C81.9443 26.6384 81.7869 25.8745 81.7189 25.4373C81.5681 24.4688 81.5877 24.6227 81.1705 24H80.7607C80.268 24.0079 80.1424 24.0835 80.0446 24.6618L80.0446 24.6617Z" fill="#6D45BD" stroke="#7852C2"/>
<path fill-rule="evenodd" clip-rule="evenodd" d="M37.5664 97.3375C36.6076 95.1492 39.8004 95.1402 38.8533 97.4036L37.5664 97.3375ZM30.9071 92.8374C31.9556 92.1718 32.6751 93.7241 31.7973 94.2875C30.9648 94.8217 29.6978 93.6051 30.9071 92.8374ZM44.8956 92.7722C45.9376 92.2421 46.6035 93.7419 45.7138 94.2939C44.7171 94.9121 43.7451 93.3574 44.8956 92.7722ZM48.5905 87.4278C47.317 88.0348 46.5462 87.0798 47.1309 86.2808C47.6509 85.5704 48.9925 85.7841 48.5905 87.4278ZM27.8285 87.4317C27.4214 85.7777 28.7673 85.5701 29.288 86.2863C29.871 87.0882 29.0909 88.0282 27.8285 87.4317ZM31.8281 79.293C32.6345 80.4477 31.7302 81.3719 30.8012 80.7987C30.3002 80.4896 29.9772 78.8783 31.8281 79.293ZM45.6482 79.0294C46.4968 81.4415 43.07 80.8675 44.4408 78.8841L45.6482 79.0294ZM42.8139 81.2958C41.9317 81.6858 41.8931 80.9747 40.9967 80.6723C40.0073 80.3385 39.4459 81.1959 40.0402 81.8027C40.5442 82.3173 41.9381 82.444 42.9431 84.5397C44.4886 87.7626 42.3477 90.8099 39.9607 91.6829C34.1305 93.8153 30.2254 85.6486 35.4266 82.3503C36.3005 81.7961 36.8179 81.931 36.3882 80.6885C34.8124 80.3451 34.4831 81.774 33.772 81.299C33.0724 80.8317 34.3294 79.5974 32.9264 78.3386C32.0342 77.5381 30.6574 77.4696 29.7336 78.3145C27.8117 80.0726 29.6273 83.2722 32.4619 82.1457C32.799 82.3916 32.6787 82.2703 32.9243 82.6085C31.4027 84.9154 31.921 85.4759 31.3418 86.0661C30.2718 85.989 30.8911 85.6103 30.095 84.9729C28.6222 83.7936 26.1733 84.7604 26.2346 86.8673C26.2701 88.0888 27.3067 89.1298 28.533 89.149C30.8745 89.1858 29.9652 87.4312 31.5073 87.5842C31.7942 88.2648 31.8131 88.8974 32.1894 89.66C32.6612 90.6166 33.1158 90.6443 32.7197 91.3921C31.7777 91.5423 30.71 90.5826 29.5212 92.0003C27.5873 94.3065 30.8976 97.3533 33.0045 95.1518C33.397 94.7417 33.619 94.3087 33.6365 93.6478C33.6702 92.3708 33.1524 92.8996 33.9924 92.0345C34.5145 92.264 34.9009 92.6159 35.5602 92.9126C37.0724 93.5932 37.4765 92.8041 37.4765 94.3897C34.8607 95.3438 35.6624 98.8771 38.1339 98.9429C40.7142 99.0116 41.6184 95.3703 38.9431 94.3916C38.9431 92.8707 39.2215 93.5966 40.7461 92.9606C41.4575 92.6637 41.8931 92.2733 42.426 92.0379C43.5739 93.2103 42.6698 92.4524 42.997 94.0854C43.1326 94.762 43.7246 95.4583 44.3459 95.716C47.3099 96.9453 48.888 92.551 46.322 91.424C45.0172 90.851 44.5128 91.5444 43.9383 91.4311C42.982 91.2425 43.8625 90.3705 44.1734 89.7638C44.5916 88.9479 44.6114 88.2727 44.9162 87.5804C46.434 87.4453 45.5851 89.1909 47.8891 89.1484C50.8522 89.0936 50.9395 84.6595 48.0234 84.4642C45.6551 84.3057 46.3975 86.1752 44.9162 86.0087C44.2225 84.2138 45.0837 85.2662 43.4942 82.6013C44.4745 81.2572 45.1118 82.8035 46.4956 81.4984C47.3591 80.6839 47.6683 79.1856 46.6876 78.1525C45.8481 77.2681 44.4807 77.0853 43.4254 77.9358C41.8867 79.1759 43.0617 80.316 42.8139 81.2958Z" fill="#6D45BD" stroke="#7852C2"/>
<path fill-rule="evenodd" clip-rule="evenodd" d="M20.6252 107.718C20.5701 103.318 20.6194 98.8857 20.6194 94.482C20.6194 89.2921 20.7475 87.5155 18.251 83.7433C15.5851 79.715 13.4934 78.8852 12.0714 76.6797C10.27 73.8856 9.53284 70.1661 9.47349 66.1899C9.37283 59.4486 11.441 49.6401 14.6108 45.0032C18.1614 39.8094 19.803 32.152 20.6323 24.6618C20.4744 24.2849 20.4303 24.2689 20.2501 24H19.4224C18.9792 24.8372 18.6211 28.3493 18.4078 29.604C18.1125 31.3413 17.7023 33.357 17.2365 35.0513C16.7641 36.7696 16.2498 38.445 15.6169 40.0507C14.9071 41.8518 14.2229 42.8912 13.1969 44.4155C9.77823 49.4946 8.00017 59.2854 8 65.8589C7.99975 72.7085 9.32841 76.3691 13.3387 80.3772C15.5431 82.5804 17.9022 85.0517 18.798 88.3225C19.3597 90.3738 19.0913 105.22 19.0913 108.049C19.6371 108.414 20.3873 108.939 20.6252 107.718V107.718Z" fill="#6D45BD" stroke="#7852C2"/>
<path fill-rule="evenodd" clip-rule="evenodd" d="M35.9713 73.5655C44.0706 72.123 50.4854 78.0873 51.4952 84.7643C52.698 92.7182 46.9764 99.0147 40.4011 100.062C32.2987 101.354 26.0295 95.6214 24.9469 88.9802C23.6211 80.8467 29.3546 74.7438 35.9713 73.5654V73.5655ZM36.9082 71.9639C32.0554 72.4741 29.2249 74.4819 26.9473 77.0262C24.7114 79.5242 22.8569 83.5763 23.3433 88.2178C24.1448 95.8659 30.9687 102.664 39.7014 101.66C47.3548 100.78 53.9855 94.1253 53.0682 85.3534C52.2707 77.7269 45.5425 71.0561 36.9083 71.9639H36.9082Z" fill="#6D45BD" stroke="#7852C2"/>
<path fill-rule="evenodd" clip-rule="evenodd" d="M82.8259 54.4426C82.8259 55.1889 84.7082 55.9997 85.1435 56.5935L81.5972 57.3509C80.9382 57.4974 80.3402 57.5966 79.8101 57.7156C78.8592 57.9291 78.3562 57.8846 78.3562 58.7444C78.3562 60.1257 81.8548 58.8521 83.8604 58.4547C86.4712 57.9374 87.6657 58.0116 87.9577 56.7589C87.1041 55.7775 85.7794 55.2497 85.309 54.6081C86.0613 54.5455 89.4217 53.3127 90.5882 52.9354C91.427 52.6641 91.6224 52.6681 92.0963 51.9608C91.7295 50.3872 90.5935 51.2759 86.8613 52.5196C85.3321 53.0292 82.8258 53.5203 82.8258 54.4426H82.8259Z" fill="#6D45BD" stroke="#7852C2"/>
<path fill-rule="evenodd" clip-rule="evenodd" d="M78.1909 65.0319C78.1909 66.128 80.1357 67.006 81.7055 68.3027C87.5711 73.1476 86.0414 70.4886 85.9713 67.3482C87.175 67.9847 88.2345 68.6591 89.4148 69.3665L91.9605 70.7815C92.751 70.8498 92.7586 70.2687 92.7586 69.8299C92.7586 69.2459 87.5327 66.4154 86.7273 65.9307C84.3091 64.4756 85.4005 65.1973 84.4814 65.1973C84.0914 66.8252 84.4814 66.5115 84.4814 68.3409C83.9016 68.1861 81.9261 66.5086 81.3123 66.0484C80.7791 65.6488 80.348 65.3148 79.8033 64.907C79.369 64.5818 78.1908 63.9606 78.1908 65.0318L78.1909 65.0319Z" fill="#6D45BD" stroke="#7852C2"/>
<path fill-rule="evenodd" clip-rule="evenodd" d="M37.8336 76.4302C38.946 75.8334 39.5838 77.4566 38.6333 77.9535C38.1737 78.1938 37.6399 77.9885 37.4384 77.6273C36.9186 76.6956 37.7985 76.4491 37.8336 76.4302ZM37.4754 79.3793C37.4775 81.0763 37.2492 81.2652 38.1298 81.3225C39.2879 81.3979 38.9421 80.4315 38.9434 79.378C41.4912 78.5469 40.8351 74.9022 38.2851 74.8281C35.6176 74.7506 34.8673 78.538 37.4755 79.3793L37.4754 79.3793Z" fill="#6D45BD" stroke="#7852C2"/>
</svg>
