<svg width="97" height="128" viewBox="0 0 97 128" fill="none" xmlns="http://www.w3.org/2000/svg">
<path d="M96.9788 47.8149C96.1068 75.9758 51.9916 124.266 48.5016 128C45.0402 124.266 0.893185 75.9758 0.0212517 47.8149C-0.789417 21.4722 21.7036 0.116234 48.5016 0C75.2964 0.116234 97.7894 21.5013 96.9788 47.8149Z" fill="#EDEAF3"/>
<path fill-rule="evenodd" clip-rule="evenodd" d="M36.1536 82.2972C36.7092 80.9436 36.0565 80.9984 34.9744 80.525C33.8153 80.018 31.8555 78.1548 32.0473 77.0844C32.7136 73.3675 36.9481 68.7946 41.3545 71.8615C45.0929 74.4634 45.0366 79.9194 44.5671 84.8492C44.4479 86.1008 44.0714 86.7457 44.65 87.6718C45.5595 89.1276 45.9869 90.7698 46.1982 92.6796C46.4611 95.0549 46.5909 96.4825 45.5168 98.3633C44.7495 99.707 43.7017 100.866 42.068 101.477C35.2157 104.042 29.7509 90.4766 38.011 87.7277C39.4053 87.2637 38.8504 86.0044 37.8146 86.0653C37.1839 86.1023 35.9228 86.7744 35.4865 87.0586C33.2609 88.5087 33.1687 89.9247 32.5143 90.6549C29.971 87.2843 29.4972 84.1149 31.0511 79.3701L31.6611 79.9868C32.562 81.1587 34.5738 82.7733 36.1536 82.2972ZM46.1089 86.3497C46.1603 84.4202 46.4262 82.4301 46.4598 80.4026C46.4925 78.4356 46.4862 76.2949 46.7673 74.3956C48.3346 63.8076 59.4922 66.4976 59.3381 72.9924C59.3167 73.8969 59.0521 74.7821 58.6681 75.4575C57.7752 77.0284 58.8395 77.2776 59.2636 77.183C59.8953 77.042 60.3185 75.9827 60.5499 75.3438C60.697 74.938 60.8149 74.5468 60.8885 74.1114C60.9267 73.8856 60.9447 73.5223 60.983 73.3442L61.2244 72.7766C61.6976 74.1359 62.483 74.3344 62.9449 77.5339C63.0999 78.6075 63.5812 78.7592 64.0474 79.5359C65.4357 81.8493 65.7066 84.7248 64.7646 87.2509C64.2117 88.7336 63.1238 90.3073 62.0269 90.8023C61.2554 89.6884 59.279 88.4229 57.067 88.5693C54.7938 88.7198 55.4069 90.0632 55.8705 90.2797C56.3578 90.5072 57.6792 89.9993 58.9163 90.5048C60.7803 91.2666 61.8246 92.4978 61.0876 95.1155C59.4274 101.012 51.1239 104.622 48.3827 100.749C46.9309 98.6969 49.0729 93.1619 46.8622 88.3115C48.3089 88.2372 48.9111 88.4775 50.4117 88.0118C52.2171 87.4515 54.1609 85.9614 55.2637 84.5992C55.8467 83.879 56.6065 83.1519 56.2567 82.05C54.9239 81.6195 54.7648 82.5409 54.055 83.3848C51.9533 85.8837 49.7831 87.2208 46.1091 86.3495L46.1089 86.3497ZM45.0656 73.7316C43.5959 70.6452 41.7312 70.597 41.4259 69.6516C41.3275 69.3466 41.2494 68.7177 41.1598 68.3508C39.7277 62.485 32.1148 59.574 28.1727 54.1189C26.5786 51.9129 25.1912 48.9447 24.6192 45.5511C23.4431 38.5732 25.7733 32.3698 30.5446 27.6835C35.551 22.7666 41.902 21.6391 48.9263 21.8073C53.9277 21.9271 58.8543 23.8284 62.4049 26.7416L64.7527 28.9511C68.9633 33.3539 70.9559 41.4192 68.5743 48.7338C67.5338 51.9295 65.8465 54.2921 64.011 56.289C62.0226 58.4521 56.5266 62.1011 54.4684 64.9929C53.7248 66.0377 53.6533 65.5577 52.2304 65.7509C48.4632 66.2626 46.2245 69.1123 45.4235 72.6166C45.3768 72.821 45.3433 73.0246 45.2941 73.1911L45.1209 73.627C45.1129 73.6061 45.0873 73.6985 45.0656 73.7315V73.7316ZM33.9552 70.7918C30.349 74.1936 31.1579 75.3264 30.0604 77.6468C29.5968 78.627 29.2638 79.1096 28.9632 80.2552C27.6622 85.2138 28.8589 89.3247 31.8622 92.3235C32.3772 92.8376 32.2639 92.8373 32.2467 93.7916C32.2263 94.9316 32.4309 95.9824 32.722 96.8791C33.3113 98.6938 34.1754 100.319 35.4145 101.456C39.3236 105.043 41.5896 102.27 41.6724 104.178C41.8038 107.205 40.9321 108.187 42.9376 108.187C43.068 107.992 43.1957 107.811 43.3234 107.617L43.4044 102.772C44.2674 102.03 45.379 101.51 46.2929 100.273C47.1215 101.938 47.6691 103.169 49.9444 103.729L50.077 107.617L50.5176 108.166L51.3495 108.187L51.7467 107.729C51.7772 106.323 51.6347 105.371 51.6347 104.054C56.0158 104.054 60.4258 100.849 62.1404 97.1692C62.5396 96.3124 63.4864 93.5943 62.8983 92.3693C64.5226 91.2822 65.795 89.594 66.4815 87.5431C67.4715 84.5857 67.1357 81.7059 65.7036 79.0207C64.9118 77.5361 64.7556 78.1421 64.5935 76.9952C63.8798 71.9433 61.0738 70.5664 60.3318 69.5968L59.3511 68.4153C58.7273 67.6361 58.0744 67.1002 57.2037 66.5697L56.157 66.0445C55.9424 65.9074 56.0638 66.011 55.9096 65.8339C56.4602 65.3144 56.7868 64.8849 57.2907 64.3928L61.7243 60.5583C64.0665 58.6607 65.421 57.5174 67.2246 55.083C70.3638 50.8458 72.2599 44.3059 70.9006 37.6287C69.6196 31.3364 66.1169 27.2543 62.1699 24.4154C57.4178 20.9975 51.8099 19.8123 44.5015 20.1187C32.5277 20.6207 22.4289 29.9742 22.6128 42.3524C22.7149 49.2159 25.8005 54.5515 29.1242 57.8679C30.0483 58.79 31.0187 59.518 32.1199 60.4294C35.0762 62.8762 38.6709 65.252 39.5987 69.2511C36.1488 69.363 36.3851 69.3289 33.9548 70.7918H33.9552Z" fill="#6D45BD" stroke="#7852C2"/>
<path fill-rule="evenodd" clip-rule="evenodd" d="M43.1322 62.093C44.1375 61.9465 45.0596 61.8278 46.0683 61.7689C47.2979 61.697 50.0105 62.2485 49.7181 60.7904C49.407 59.2386 43.3849 60.4995 41.7965 60.5957C40.7349 59.5228 39.9018 58.6585 38.8129 57.5918L35.5376 54.7821C39.6516 53.9515 43.8335 53.5266 48.0699 53.4226C48.6367 53.4087 49.8043 53.4704 50.2886 53.3808C51.1085 53.2293 51.2375 52.2845 50.6551 51.8869C49.6897 51.2276 40.0898 52.3101 37.8542 52.673C36.7486 52.8526 34.7654 53.3531 33.7519 53.3721C32.7134 51.6941 31.9832 51.5187 30.767 48.5317C29.9968 46.6405 29.4365 44.0588 29.5315 41.7913C34.1943 40.9357 38.2691 40.252 43.22 40.0097C46.7961 39.8347 50.6401 39.9219 54.1975 40.3757C55.0261 40.4815 56.9773 41.1414 57.0687 39.9216C57.155 38.771 55.3956 38.845 54.4092 38.7214C45.3025 37.5798 38.5578 38.6379 29.6682 40.0489C29.7323 38.8542 30.1576 37.411 30.5545 36.389C31.4031 34.2044 31.4157 34.4159 32.8299 34.1077C34.106 33.8296 35.3834 33.5792 36.7 33.4072C37.9465 33.2444 40.1351 33.2885 40.9965 33.0032C41.9114 30.0947 35.8462 32.0959 33.0127 32.3193C35.6219 29.1648 40.4385 26.5674 46.6443 26.6363C50.0653 26.6744 52.0549 26.7856 54.9927 28.0213C57.13 28.9203 59.8014 30.7107 60.7327 32.0505C55.1684 31.2239 52.9659 30.9819 47.3572 30.8964C46.8299 30.8883 45.3759 30.8172 44.9501 30.9391C44.292 31.1274 44.0165 32.0775 44.7282 32.4379C44.9409 32.5457 52.9186 32.7525 54.0618 32.8376C58.2226 33.147 58.3044 33.2571 61.7755 34.0848C61.8241 34.0964 61.9702 34.1272 62.0153 34.1389C62.0527 34.1485 62.0959 34.1611 62.129 34.1702C63.1067 34.4383 63.9752 37.8819 64.2044 39.0595C64.6779 41.492 64.421 43.0476 64.1802 45.4162C57.7072 44.629 57.2829 44.3227 50.2087 44.4685C46.5086 44.5448 43.2919 44.776 39.6563 45.0633C38.294 45.171 37.3301 45.6576 38.4015 46.724C39.301 46.9087 43.3951 46.4393 44.6434 46.3627C49.9839 46.0344 58.9227 45.8057 63.7218 47.0816C62.6915 51.3648 59.832 53.7982 56.7864 56.1951C55.5431 57.1736 54.4349 58.3285 53.4325 59.3985C52.8121 60.0607 52.0373 60.225 52.4308 61.517C53.2854 61.8412 53.4948 61.7361 54.0365 61.1408C57.26 57.5975 60.379 55.9205 62.7241 52.865C65.4802 49.2739 67.0368 43.0216 65.5759 37.5443C64.229 32.4943 60.7784 28.9646 56.7575 26.978C52.2506 24.7514 45.4379 24.2253 40.219 25.8135C35.144 27.3579 31.5631 30.502 29.5569 34.542C26.0595 41.5852 28.2186 51.2316 33.9676 55.7315C36.767 57.9227 39.2368 60.1063 41.4466 62.7929C42.2011 63.7102 42.6702 64.49 43.0738 66.0126C43.6403 68.1494 45.8665 67.1611 43.9898 63.5284C43.7346 63.0346 43.1908 62.4668 43.1322 62.0932V62.093Z" fill="#6D45BD" stroke="#7852C2"/>
<path fill-rule="evenodd" clip-rule="evenodd" d="M33.2507 69.8544C33.742 68.7875 33.3831 68.384 32.6829 67.7029C30.2175 65.3046 30.407 65.3548 27.3889 63.3059C24.9291 61.6361 22.5861 59.2309 20.8212 56.9023C7.71871 39.616 20.6456 14.9932 45.2123 13.7182C58.5894 13.0239 72.4983 21.0337 76.6303 34.1854C78.9667 41.622 77.3652 49.6337 73.8029 55.1045C69.8303 61.2053 67.6308 61.8676 62.9805 65.522C62.6734 65.7633 62.4719 66.0207 62.1786 66.2825C61.657 66.7477 60.8155 67.2038 61.3537 68.2868C62.3504 68.816 62.8506 67.9647 64.3605 66.6134L69.2323 62.9327C70.1622 62.2065 71.9277 60.442 72.6542 59.5127C76.0704 55.1435 78.0494 52.0747 79.1539 45.6315C81.0391 34.6337 75.0673 23.7899 66.4063 18.0411C60.7796 14.3062 54.512 12.2519 48.0952 12H45.4175C41.6185 12.1476 37.7913 12.9262 34.0365 14.3618C29.0597 16.2645 26.986 17.8668 23.5043 20.7927C21.0107 22.8882 19.0275 25.573 17.4083 28.3799C14.0673 34.1711 13.125 41.2175 14.6482 47.8254C15.3318 50.791 16.2715 52.6779 17.6071 55.1281C18.577 56.9075 21.2968 60.4443 22.7991 61.7664C24.9233 63.6359 28.5906 66.1588 29.4976 67.0416C30.0588 67.5879 30.4606 67.7493 31.2804 68.6798C31.9523 69.4427 32.0448 70.127 33.2508 69.8544H33.2507Z" fill="#6D45BD" stroke="#7852C2"/>
<path fill-rule="evenodd" clip-rule="evenodd" d="M11.0001 77.4079C11.0001 78.521 11.9653 78.5134 13.9404 79.1716C15.3661 79.6467 23.0827 82.3953 24.2599 82.3953C24.6645 82.3953 24.9727 81.9035 24.9727 81.5404C24.9727 80.6469 22.9114 80.2717 22.0698 80.0243L15.2236 77.7467C14.0712 77.3627 11 75.8917 11 77.408L11.0001 77.4079Z" fill="#6D45BD" stroke="#7852C2"/>
<path fill-rule="evenodd" clip-rule="evenodd" d="M70.0273 81.3978C70.0273 83.2838 72.3766 82.0113 74.3228 81.4159L82.6639 78.6375C83.7225 78.296 84 78.2897 84 77.4078C84 77.0756 83.6196 76.6953 83.2871 76.6953C82.3995 76.6953 73.7028 79.8321 71.4344 80.524C71.1562 80.6088 70.8153 80.6673 70.5765 80.8067C70.4586 80.8755 70.0273 81.2756 70.0273 81.3978Z" fill="#6D45BD" stroke="#7852C2"/>
<path fill-rule="evenodd" clip-rule="evenodd" d="M11 96.5022L11.1426 97.3572C11.8987 97.7198 11.9727 97.5903 12.7992 97.3048L23.6367 93.742C26.0711 92.9594 24.6407 91.7998 24.1172 91.7998C23.5913 91.7998 15.9176 94.4871 14.0854 95.0259C13.446 95.214 13.0073 95.3859 12.3713 95.5928C11.8381 95.7663 11 95.9149 11 96.5023L11 96.5022Z" fill="#6D45BD" stroke="#7852C2"/>
<path fill-rule="evenodd" clip-rule="evenodd" d="M70.0273 92.6549C70.0273 93.5939 71.6586 93.8389 73.0753 94.311C74.3294 94.729 75.5553 95.0884 76.7467 95.4866L82.0929 97.2692C82.9543 97.5629 83.0669 97.7364 83.8574 97.3573C84.2149 95.8236 84.0931 96.0813 81.0241 95.0591C79.9174 94.6906 78.9012 94.3491 77.6752 93.9887C76.6421 93.6849 71.3863 91.7998 70.8828 91.7998C70.4217 91.7998 70.0273 92.1939 70.0273 92.6548V92.6549Z" fill="#6D45BD" stroke="#7852C2"/>
<path fill-rule="evenodd" clip-rule="evenodd" d="M71.1679 88.0947H82.7167C83.2336 88.0947 83.5125 87.9751 83.8574 87.8097C83.9267 87.5205 83.9757 87.3992 83.9999 87.3193V87.1032C83.977 87.0027 83.9306 86.8414 83.8574 86.5271C83.5126 86.3618 83.2336 86.2422 82.7167 86.2422H71.1679C69.7149 86.2422 69.7149 88.0947 71.1679 88.0947Z" fill="#6D45BD" stroke="#7852C2"/>
<path fill-rule="evenodd" clip-rule="evenodd" d="M11 86.9547C11 87.3979 11.1471 87.9521 11.7129 87.9521H23.9746C25.3133 87.9521 25.3133 86.2422 23.9746 86.2422H11.7129C11.3804 86.2422 11 86.6224 11 86.9547Z" fill="#6D45BD" stroke="#7852C2"/>
</svg>
